<?xml version="1.0" encoding="iso-8859-1"?>
<!-- Generator: Adobe Illustrator 16.0.0, SVG Export Plug-In . SVG Version: 6.00 Build 0)  -->
<!DOCTYPE svg PUBLIC "-//W3C//DTD SVG 1.1//EN" "http://www.w3.org/Graphics/SVG/1.1/DTD/svg11.dtd">
<svg version="1.1" id="Layer_1" xmlns="http://www.w3.org/2000/svg" xmlns:xlink="http://www.w3.org/1999/xlink" x="0px" y="0px"
	 width="1289px" height="776px" viewBox="0 0 1289 776" style="enable-background:new 0 0 1289 776;" xml:space="preserve">
<rect x="-4.5" y="-4.203" style="fill:#000E3A;" width="1301.25" height="789.542"/>
<linearGradient id="SVGID_1_" gradientUnits="userSpaceOnUse" x1="943.8057" y1="86.522" x2="-1537.9321" y2="1580.0349" gradientTransform="matrix(0.9947 -0.1024 -0.1024 -0.9947 9.6479 770.6556)">
	<stop  offset="0.0202" style="stop-color:#45108A"/>
	<stop  offset="0.2929" style="stop-color:#3D065F"/>
	<stop  offset="1" style="stop-color:#200554"/>
</linearGradient>
<path style="opacity:0.2;fill:url(#SVGID_1_);enable-background:new    ;" d="M320.811,267.882c0,0,3.736,3.608,7.521,4.916
	c3.786,1.308,3.983,2.946,4.385,9.127c0.403,6.182,11.549,3.624,11.549,3.624s-3.027-7.359-5.498-12.531
	C336.298,267.845,320.811,267.882,320.811,267.882z M351.419,276.166c0.88-0.961-6.103-0.602-3.817-3.063
	c2.285-2.462,4.596-6.076,4.596-6.076l-2.599-1.356c-2.949,1.971-7.848,8.103-5.409,11.517
	C346.627,280.603,350.538,277.126,351.419,276.166z M347.464,294.725c4.992,2.236,14.451,4.92,16.032,8.146
	c1.582,3.225,1.292,8.129,1.292,8.129s5.507-5.279-2.93-11.96c-8.438-6.682-14.771-11.648-14.771-11.648s-0.519,2.478-2.781,2.82
	c-2.262,0.342-6.626-0.063-6.626-0.063l5.563,5.202C343.242,295.352,345.943,294.045,347.464,294.725z M577.888,515.232
	c-3.78,0.146-12.712,5.634-17.075,4.744c-4.364-0.889-7.405-2.734-12.147-0.6c-4.743,2.138-3.951,4.234-8.084,7.225
	c-4.133,2.989-6.147,3.638-8.368,4.19c-2.22,0.555-4.757,2.228-6.27,4.455c-1.513,2.227-5.838,5.517-5.114,7.582
	c0.715,2.047,7.253,2.766,11.306,0.804c4.053-1.961,36.909-16.583,39.402-18.467c2.493-1.885,4.364-4.532,6.236-6.694
	C579.644,516.309,581.669,515.086,577.888,515.232z M819.696,555.157c-7.095,1.085-11.814,0.132-15.154,0.766
	c-3.34,0.635-7.943,2.834-9.16,2.094c-1.215-0.737-1.61-4.012-4.947-2.406c-5.286,2.542-15.799,8.026-15.678,12.146
	c0.121,4.121,7.23,9.82,7.099,11.697c-0.133,1.877,7.928,2.194,11.702-0.374c3.777-2.569,5.457-3.947,9.953-5.419
	s7.197-3.748,8.578-3.129c1.381,0.618,2.871,0.512,4.797-2.5c1.925-3.011,3.74-5.295,6.582-5.569c2.847-0.277,4.943-0.5,6.07-2.125
	s3.32-7.419,2.022-7.612C830.263,552.531,826.788,554.073,819.696,555.157z M753.108,705.6c-3.593-0.64-0.699-3.217-3.685-3.971
	c-1.828-0.463-9.668,8.447-4.775,10.252c4.89,1.802,17.017-6.32,17.179-7.411C761.991,703.381,756.696,706.239,753.108,705.6z
	 M628.753,288.045c-1.518,0.29-2.1-0.746-3.254,1.062c-1.338,2.096,6.104,2.541,8.346,3.35c2.238,0.809,6.213,0.846,7.535-0.11
	c1.324-0.956,3.473-2.513,4.385-2.685c0.91-0.173,2.976-2.152,2.228-3.067s-4.674-3.256-6.328-3.028
	c-1.656,0.226-3.562,1.116-4.639,0.439c-1.078-0.675-5.222-1.563-6.127,0.55C629.993,286.666,630.271,287.758,628.753,288.045z
	 M660.688,252.972c2.618-1.732,4.737-4.074-2.084-5.772c-6.824-1.7-10.056-1.792-12.736-3.573c-2.683-1.782-4.82-6.223-11.607-5.199
	c-4.981,0.754-1.801,8.101,3.342,11.177C642.743,252.682,658.069,254.704,660.688,252.972z M499.308,233.766
	c-1.05-1.985-8.558,0.039-12.42,1.214c-3.861,1.176-7.225,2.961-9.019,3.126c-1.793,0.165,4.262,4.038,6.638,4.908
	c2.377,0.871,3.896,0.583,3.873,2.702c-0.021,2.12,3.899,2.521,5.056,1.683c1.157-0.835,2.034-3.734,3.715-5.112
	s-1.803-2.743-2.744-4.327C493.462,236.375,500.112,235.287,499.308,233.766z M461.222,172.954c-0.664-0.491-1.217-1.062-2.504-0.67
	c-1.287,0.392-1.602-0.136-2.299,0.584c-0.719,0.744,0.999,1.867,2.913,1.885c1.915,0.018,4.638-0.118,4.885-0.458
	C464.464,173.954,461.886,173.444,461.222,172.954z M467.658,177.901c-1.28,0.009-2.411,0.341-2.64,0.884s-0.174,0.18-0.365,0.804
	c-0.217,0.704,3.351,0.596,4.719-0.339C470.742,178.313,468.938,177.893,467.658,177.901z M449.088,192.304
	c-0.718-0.281-2.042,0.506-2.51,1.006s1.841,0.179,2.946,0.674c1.105,0.495,4.559,1.395,4.542,1.84
	c-0.019,0.444,2.925-0.175,1.765-0.953c-1.162-0.778-4.594-0.508-4.228-1.312c0.365-0.804,0.521-1.509-0.362-1.517
	C450.356,192.033,450.248,192.759,449.088,192.304z M373.613,98.552c1.926,0.927,3.589,3.931,3.518,4.738s9.017,2.488,9.962,2.072
	c0.946-0.415,3.037,0.069,5.981-0.227c2.943-0.296,13.414,2.651,13.854,2.332c0.441-0.319-3.804-4.802-5.295-5.34
	c-1.493-0.539-5.618-2.193-6.995-4.165c-1.375-1.972-10.124-3.952-11.137-4.406c-1.014-0.453-1.618,0.955-3.528,1.906
	c-1.911,0.951-4.07-0.31-7.029,0.338C369.844,96.478,371.688,97.626,373.613,98.552z M400.594,116.958
	c-1.861-1.35-10.021-3.647-10.748-3.392c-0.726,0.255,0.051,1.313,0.679,2.369s4.211,2.402,5.743,4.314
	c1.533,1.912,4.215,3.372,8.26,5.248c4.044,1.875,9.06,2.185,12.559,2.783c3.498,0.598,7.807,5.303,11.132,6.405
	c3.325,1.101,6.123,1.127,6.536,0.667c0.413-0.461,4.431-1.695,4.696-2.48c0.265-0.785-2.791-0.733-3.342-0.657
	c-0.554,0.076-4.121-2.685-5.386-4.09c-1.264-1.404,0.043-1.594,0.86-2.131c0.817-0.538,0.115-1.755,0.609-3.084
	c0.493-1.328,2.795-1.266,4.716-1.954s-1.938-2.158-3.504-2.86c-1.566-0.701-2.625-0.529-3.553,0.088
	c-0.927,0.617-2.552-1.336-3.877-1.349c-1.323-0.012-2.888,4.193-3.496,3.986c-0.607-0.208-0.811-4.107-1.66-5.326
	c-0.852-1.22-2.425-1.214-2.79-0.411c-0.366,0.805-2.513,0.038-1.952-0.422c0.561-0.459-2.759-2.59-4.739-3.477
	c-1.981-0.887-1.446-0.841-1.421-1.669c0.025-0.828-7.653-2.071-9.954-2.779c-2.303-0.708-4.354-0.143-5.338-0.131
	c-0.984,0.011-4.571-0.237-4.756,0.582c-0.146,0.645,1.427,0.316,2.304,1.353c0.877,1.039,8.453,2.302,7.342,3.159
	c-1.111,0.858-9.263-2.147-9.354-1.865c-0.091,0.282,3.238,3.322,8.109,4.923c4.873,1.601,6.57,3.394,6.396,3.573
	C404.491,118.509,402.457,118.308,400.594,116.958z M446.84,133.406c1.915,0.34,3.075,0.796,4.88,1.217
	c1.806,0.42,3.165-0.132,4.165-1.232c1.001-1.102-0.604-2.207-0.107-2.889s2.676-0.479,2.729-1.166
	c0.052-0.686-1.465-0.721-2.359-1.638c-0.896-0.917-5.852-2.62-7.058-3.095c-1.207-0.476-3.773-0.399-4.096-0.543
	c-0.323-0.144,2.28,2.828,0.724,2.713c-1.555-0.116-3.594-2.255-4.598-2.447c-1.313-0.25-2.326,0.443-1.967,0.992
	c0.359,0.549,0.853,2.512,1.683,2.883c0.829,0.371,2.847,1.662,3.293,2.958C444.574,132.455,444.925,133.064,446.84,133.406z
	 M472.158,131.06c0.798-0.74,0.906-2.111-0.431-2.71c-1.336-0.598-3.287-1.021-4.635-2.204c-1.346-1.184,0.048,0.667-0.992,0.718
	c-1.04,0.05-2.115,0.344-2.115,0.344c0.204,0.608,3.642,2.921,5.161,3.603C470.668,131.49,471.359,131.799,472.158,131.06z
	 M453.617,120.628c-0.007,1.029,1.229,2.616,2.428,3.152c1.197,0.537,5.488,1.425,6.417,1.13c0.929-0.294,3.504-0.753,3.041-2.252
	c-0.464-1.498-2.104-2.039-3.679-3.002c-1.576-0.965-2.619-1.883-4.488-2.204c-1.868-0.32-4.601-0.124-5.634-1.103
	c-1.032-0.978-2.906-2.915-3.845-3.206c-1.042-0.324-1.592,0.126-1.819,0.992c-0.229,0.866,1.535,2.881,2.447,3.677
	C449.396,118.61,453.623,119.598,453.617,120.628z M444.942,118.164c0.771-0.558,1.301-2.128-3.078-1.766
	C441.211,116.452,444.171,118.722,444.942,118.164z M429.646,106.41c0.488,0.67,3.143,1.665,2.203,2.02
	c-0.938,0.354-2.078,0.102-1.664,0.61c0.416,0.509,1.477,0.983,0.813,1.138c-0.662,0.156-4.836-1.52-5.224-2.533
	c-0.391-1.013-0.015-1.554-0.991-2.25c-0.978-0.695-4.616-2.325-4.378-2.929c0.237-0.604-2.029-1.876-4.718-2.306
	c-2.688-0.429-8.908-0.245-9.11,0.116c-0.201,0.361,2.711,1.923,3.422,2.757c0.711,0.835,4.486,1.88,5.618,1.871
	c1.132-0.009,1.692-0.146,1.667,0.359c-0.025,0.504,4.405,2.101,4.12,2.36c-0.284,0.261-7.47-2.312-7.743-1.789
	c-0.274,0.522,4.128,2.624,6.671,3.374c2.541,0.75,9.06,1.862,10.562,2.987c1.504,1.125,7.428,3.906,9.929,2.96
	c1.475-0.557,1.522-1.641-0.172-2.465c-1.695-0.823-3.747-0.58-3.844-2.236c-0.096-1.658,0.278-2.521-0.329-3.053
	c-0.608-0.531-3.865-0.117-4.953-0.732C430.436,106.054,429.156,105.738,429.646,106.41z M397.093,93.382
	c1.688,0.885,0.354,1.579,2.951,2.29c2.596,0.711,4.188,0.261,4.988,0.49c0.801,0.23,5.398-0.938,4.842,0.49
	c-0.558,1.429,0.999,1.868,2.021,1.938c1.021,0.07,3.902,0.521,4.455,0.446c0.553-0.076,0.584-1.61,1.765-1.276
	c1.178,0.334,1.185-1.019,3.505-0.431s4.494,1.496,4.616,2.325c0.122,0.829,2.233,2.808,4.25,3.13
	c2.016,0.321,4.408,0.424,5.836,0.74s4.169,0.383,3.505-0.431c-0.665-0.813-3.241-0.677-5.469-1.222
	c-2.229-0.546-1.504-1.448-3.347-2.272c-1.842-0.826-3.398-1.265-5.958-1.894c-2.561-0.63-6.915-1.096-9.603-1.848
	c-2.689-0.752-3.659-2.155-8.214-2.582c-4.558-0.426-11.04-2.426-12.228-2.376C393.555,90.959,395.406,92.498,397.093,93.382z
	 M409.695,98.832c0.008-0.384-5.223-1.887-6.786-1.619c-0.451,0.077,2.573,2.185,3.659,2.155
	C407.654,99.337,409.688,99.215,409.695,98.832z M446.589,111.092c0.104,0.303,3.872,2.701,4.387,2.545
	c0.516-0.157-2.274-4.827-3.63-5.304C446.277,107.956,446.488,110.788,446.589,111.092z M453.924,108.052
	c0.768,1.117-1.895-0.139-1.994,0.526c-0.101,0.666,3.834,2.298,4.441,2.505c0.608,0.208,0.068,1.515,1.268,2.697
	c1.199,1.184,2.254,0.042,3.939,0.281c1.685,0.237,2.943,2.995,4.729,3.214c1.786,0.218,1.002-0.455,0.982-0.981
	c-0.02-0.524-0.835-2.632-1.333-3.243c-0.499-0.61-2.821-1.843-4.663-2.669c-1.843-0.824-2.409-2.627-4.067-3.37
	c-1.657-0.742-3.217-2.149-4.318-1.353C452.742,105.779,453.159,106.934,453.924,108.052z M470.732,116.933
	c0.488,0.67,2.396,2.042,0.917,2.088c-1.482,0.046-3.269-0.171-2.218,0.363c1.051,0.535,3.038,0.715,3.584,1.668
	c0.544,0.955,2.553,1.66,3.771,2.399c1.216,0.738,4.477,1.94,5.342,1.746c0.864-0.193-3.391-1.97-3.384-2.676
	s1.775-0.043,1.599-0.833s-3.099-2.291-3.616-3.104c-0.517-0.813-3.972-2.359-4.294-2.504c-0.322-0.144-0.239-0.042-0.239-0.042
	C471.373,115.605,470.243,116.262,470.732,116.933z M482.377,118.597c1.658,0.743,7.718,2.617,7.213,3.037
	c-0.506,0.418-5.837-1.389-6.342-0.646c-0.504,0.742,1.893,2.46,2.261,2.626c0.369,0.164,3.336,2.01,4.856,2.69
	c1.52,0.681,4.817,2.287,5.647,2.659c0.828,0.371,3.742-1.036,4.276-0.99c0.533,0.045-0.954,1.445,1.189,1.566
	c2.146,0.121,5.377,0.858,5.377,0.858s-1.241,0.735-1.563,0.591c-0.323-0.145-3.075-0.797-3.838-0.622
	c-0.763,0.175,1.091,1.908,2.196,2.403c1.104,0.495,2.743,0.712,2.743,0.712s-3.494,0.694-2.066,1.333
	c1.428,0.64,4.21,1.756,5.756,1.933c1.547,0.176,2.017,0.645,1.419,0.7c-0.599,0.054-4.999-0.431-7.061-1.097
	c-2.063-0.665-1.903-2.723-3.516-3.445c-1.61-0.722-3.917-2.076-4.431-1.919c-0.514,0.157,2.392,3.395,0.355,2.548
	c-2.035-0.847-5.665-2.214-6.888-2.246c-1.225-0.032-3.156,0.071-1.682,0.731c1.474,0.66,8.559,3.897,8.559,3.897
	s8.726,4.423,10.844,5.372c2.119,0.949,3.474,1.426,4.414,2.364c0.941,0.938,6.197,1.613,7.072,2.005
	c0.875,0.392,3.527,1.063,1.987-0.144c-1.54-1.205-3.496-3.243-1.684-2.882c1.814,0.36,6.721,0.75,8.011,1.327
	s5.321,1.545,7.106,1.117c1.784-0.427-4.857-3.337-2.639-3.054c2.218,0.283,6.857,1.135,7.317,1.341
	c0.462,0.206,6.836,2.608,9.993,3.184c3.157,0.574,3.729,0.378,7.925,0.902c4.198,0.523,15.323,3.697,15.938,3.521
	c0.616-0.176-10.609-3.33-8.695-3.312c1.914,0.018,6.621,1.415,9.826,2.656c3.205,1.242,7.091,2.208,8.554,2.282
	c1.464,0.074,2.864,0.896,3.37,0.476c0.504-0.419-6.164-2.501-5.954-3.57c0.209-1.068-2.794-2.348-6.266-3.128
	c-3.471-0.78-2.018-0.967-3.658-2.154c-1.642-1.187-7.41-4.351-9.859-5.384c-2.45-1.033-5.848-1.65-7.26-2.733
	c-1.409-1.083-7.978-4.154-7.553-3.382s2.06,2.664,0.842,2.249c-1.215-0.415-1.625-1.953-5.384-3.766
	c-3.758-1.812-7.285-2.875-10.093-3.487c-2.809-0.612-3.352,0.049-3.352,0.049s6.745,3.213,5.365,3.241
	c-1.38,0.027-3.526-1.063-5.149-2.371c-1.624-1.308-2.058-1.696-3.727-3.023c-1.669-1.329-3.733-2.64-5.693-3.002
	c-1.962-0.361-1.784,0.751-5.146-0.431c-3.362-1.183-4.395-2.485-6.716-3.072c-2.32-0.587-5.388-2.091-6.906-1.801
	c-1.518,0.288,2.997,2.309,3.909,2.783c0.912,0.472-0.459,0.439,0.242,1.012c0.701,0.572,2.489,1.436,4.47,2.323
	c1.98,0.887,0.958,0.817,1.585,1.55c0.628,0.733,0.16,1.234,2.417,2.244c2.257,1.01,5.158,1.987,6.521,2.08
	c1.361,0.094,0.387,0.69,1.99,1.473c1.604,0.782,3.345,1.627,6.236,2.34c2.891,0.714,5.605,0.639,6.886,0.954
	s-2.264,0.019-0.808,0.8c1.456,0.781,5.196,2.392,5.372,2.534c0.174,0.143,3.151,1.928-0.486,0.621
	c-3.638-1.306-7.368-2.653-7.368-2.653s-2.349-0.729-5.222-1.563c-2.874-0.834-6.55-2.869-5.895-1.994
	c0.654,0.874,0.813,1.785,1.495,2.154c0.683,0.37-0.809,0.154,1.189,0.92c2,0.765,4.689,1.841,2.563,1.599
	c-2.125-0.242-4.492-0.85-5.313-1.604c-0.82-0.755,0.225-2.159-1.563-3.024c-1.786-0.864-4.376-1.959-5.813-2.861
	c-1.438-0.902-4.111-3.068-3.711-1.468c0.398,1.599,3.044,3.3,2.907,3.561c-0.139,0.261-0.838,0.335,1.348,1.506
	c2.184,1.171,4.396,2.808,4.627,2.911c0.23,0.103,0.906,1.826-2.329,0.119c-3.233-1.707-5.961-2.863-6.522-3.373
	c-0.563-0.51-0.298-1.295,0.052-1.333c0.35-0.037,0.449-0.702,0.043-0.948c-0.405-0.246-2.119-1.272-2.572-1.861
	c-0.452-0.59-0.498-0.288,0.237-0.927c0.733-0.639-0.315-0.528-0.399-1.275c-0.084-0.748,1.455,0.134,0.136-0.908
	c-1.318-1.041-1.411-1.406-1.989-1.149c-0.58,0.258-0.273,1.492-1.143,0.394c-0.866-1.099,0.359-0.421-0.922-1.382
	c-1.283-0.961-0.433-0.064-2.351-1.374c-1.917-1.311-1.381-0.62-1.985-2.826c-0.604-2.206-1.883-2.198-3.495-2.919
	c-1.611-0.723-1.308-0.457-1.308-0.457c-1.954-0.745-1.603-0.135-5.118-0.613c-3.517-0.478-6.527-1.051-6.736,0.017
	C480.64,115.754,480.719,117.854,482.377,118.597z M500.026,143.538c0.978,0.696-1.193,1.079,0.722,1.744
	c1.916,0.664,4.282,1.271,5.619,1.87c1.334,0.599,3.656,1.185,4.501,0.789c0.846-0.395,0.3-1.672-0.115-1.858
	s-2.629-2.469-4.894-3.095c-2.266-0.627-11.641-3.341-12.591-4.218c-0.948-0.877-2.333-2.464-3.854-3.146
	c-1.521-0.68-4.914-3.297-4.545-3.456c0.368-0.158,1.279-0.008,0.716-0.841c-0.564-0.833,0.538-1.63-2.243-2.424
	c-2.781-0.794-5.276-1.523-4.919-1.944s1.369-0.936-0.104-1.596c-1.476-0.66-2.21-0.667-3.399-1.264
	c-1.188-0.596-5.269-2.23-5.656-2.274c-1.26-0.143,1.184,1.95,1.94,2.806c0.757,0.854,0.252,1.597,0.603,2.207
	c0.353,0.608,1.437-0.068,2.163,0c0.729,0.067,3.123,1.14,3.666,1.448c0.545,0.308,1.734,1.551,0.771,2.087
	c-0.967,0.537-1.979-0.241-2.032,1.092c-0.051,1.332-0.906,1.788,0.035,2.403c0.939,0.614,1.998,0.442,2.763,0.915
	c0.765,0.471-0.313,0.441,0.656,1.197c0.968,0.756,2.542,1.075,3.269,1.142c0.728,0.067,2.338-0.181,2.025,0.261
	c-0.313,0.441-2.531-0.165-0.229,0.866c2.304,1.032,8.144,3.389,9.978,4.274c1.833,0.886,2.635,1.438,3.398,1.264
	C499.032,143.609,499.049,142.842,500.026,143.538z M489.345,130.172c1.325,0.012,2.744,0.712,2.393-0.22
	c-0.354-0.932-2.509-1.962-4.103-2.481c-1.342-0.438-2.724-0.187-2.051,0.243c0.673,0.431,1.484,0.6,1.485,1.246
	C487.071,129.605,488.02,130.159,489.345,130.172z M652.64,230.394c0,0-3.998-2.855-7.396-3.794
	c-3.396-0.939-7.43-1.586-7.377-2.433c0.055-0.847,3.147,0.151,4.102,0.189c0.951,0.041,5.287,0.626,3.851-0.114
	c-1.438-0.74-5.775-2.295-3.953-2.156c1.821,0.137,6.448,1.725,5.069,1.108c-1.383-0.621-6.817-4.216-3.625-2.882
	c3.191,1.333,6.179,4.025,6.611,5.574c0.432,1.549,0.793,2.582,2.729,3.449c1.934,0.866,2.268,1.595,3.659,0.67
	c1.394-0.926,2.729-1.004,1.927-2.042c-0.804-1.038-2.091-2.29-2.988-3.178c-0.902-0.887-2.41-3.111-2.148-3.381
	c0.263-0.271-7.008-3.429-2.823-2.813c4.184,0.616,6.811,1.792,6.678,3.183c-0.137,1.392,0.834,3.277,3.086,3.512
	c2.25,0.234,2.828-0.186,1.971-1.345c-0.86-1.158-4.783-2.529-4.637-4.012c0.15-1.481,1.725-1.163,1.725-1.163l6.097,4.084
	c0,0,3.082,1.089,3.399,0.941c0.316-0.147,0.078-1.03,1.748-1.346c1.67-0.319,1.033-1.475,1.431-2.652
	c0.396-1.177,2.059,1.02,2.625,1.66c0.567,0.643,1.815,2.653,3.262,0.88c1.442-1.774,1.373-2.774,1.895-3.799
	c0.523-1.025,1.002-1.776,1.97-1.343c0.969,0.432,0.457,5.334,1.448,4.616c0.99-0.717,2.521-2.064,3.017-2.425
	c0.496-0.359,0.014-0.575-0.736-1.975c-0.748-1.401,1.436-0.231,2.924-1.306c1.486-1.076,1.967-2.798,4.035-3.324
	s3.148,0.151,4.887,0.35c1.74,0.198,5.052-0.256,7.306,0.463c2.25,0.718,3.159,0.543,8.217,1.742
	c5.055,1.199,10.113,3.851,6.697,1.547c-3.414-2.305-8.791-4.809-10.935-5.768c-2.141-0.959-5.817-3.477-7.766-3.769
	c-1.947-0.289-2.705,0.825-4.047-1.036c-1.345-1.86,1.873-1.193-1.58-2.74c-3.455-1.547-12.869-1.696-11.313-2.741
	c1.558-1.045,8.797,1.324,11.158,1.8c2.361,0.477,7.416,1.675,5.342,0.748c-2.071-0.93-4.658-2.861-7.42-4.099
	c-2.766-1.237-8.457-3.107-7.699-3.738c0.759-0.63,3.117-0.636,0.906-1.627c-2.211-0.99-3.791-3.73-7.918-3.738
	c-4.127-0.008-8.266-4.379-10.961-5.585c-2.693-1.206-20.184-7.49-24.19-9.284c-4.009-1.795-8.679-3.594-11.455-4.742
	c-2.777-1.147-9.795-3.03-6.947-1.368s8.211,4.256,6.207,4.329c-2,0.071-6.863-1.913-6.988-1.581
	c-0.121,0.332,5.213,3.108,2.922,2.663c-2.293-0.446-6.701-1.546-6.677-3.667c0.022-2.12,0.751-3.537-0.701-4.187
	c-1.452-0.649-6.88-2.791-6.947-1.852c-0.065,0.938,0.63,2.701-0.546,2.175c-1.175-0.525-2.186-1.171-2.615-2.235
	c-0.432-1.063-1.331-2.92-2.477-2.659c-1.146,0.263-0.271,2.3-2.951,1.487c-2.681-0.813-3.231-0.575-2.956-0.937
	c0.276-0.362,3.298-0.848,0.464-2.116c-2.833-1.269-12.201-5.657-11.675-4.744c0.525,0.913,0.611,1.823-0.493,1.328
	c-1.105-0.495-0.625-1.248-2.769-2.206c-2.141-0.959-2.829-0.299-4.401-0.133c-1.573,0.167,0.363,2.002-2.069,0.526
	c-2.434-1.477-0.362-1.034-3.442-2.122c-3.081-1.09-5.439-0.598-7.084-0.946c-1.643-0.348-9.545-2.725-7.885-1.498
	c1.659,1.228,2.183,1.172,4.81,2.348c2.626,1.175,9.478,3.178,8.124,3.347c-1.352,0.169-3.519,0.361-5.08-0.532
	c-1.562-0.894-1.714-0.865-1.714-0.865c-3.463-0.002-7.524-0.949-10.911-2.465c-3.385-1.516-8.646-2.322-9.819-2.849
	c-1.176-0.525-4.795-1.953-5.566-1.233c-0.771,0.72-0.269,2.784,2.123,4.048c2.391,1.265,12.129,4.658,11.248,5.134
	c-0.882,0.476-10.567-3.28-11.147-3.346c-0.58-0.066-2.845-0.694-1.35,1.138c1.496,1.832,6.33,3.028,5.544,3.354
	c-0.787,0.325-3.023,0.002-1.268,1.078c1.755,1.077,4.891,1.803,8.565,3.352c3.678,1.549,6.564,2.939,9.288,4.449
	c2.724,1.509,4.755,2.71,5.478,3.807c0.72,1.098,1.595,3.135,0.823,4.339c-0.771,1.204-0.839,6.594-2.284,7.882
	c-1.446,1.289-3.682,1.935-0.641,3.295c3.04,1.361,6.671,1.729,7.693,2.285c1.021,0.553,2.698,2.175,1.608,3.042
	c-1.089,0.868-1.703,3.014-2.782,1.852c-1.081-1.162-4.732-3.861-6.318-4.087c-1.589-0.229-3.079-0.122-4.209,0.534
	c-1.13,0.656-2.686,2.187-0.061,2.877c2.624,0.692,4.251-0.323,6.736,0.792c2.488,1.114,3.248,1.453,2.686,2.266
	c-0.564,0.812,1.758,2.045-2.149,1.553c-3.908-0.49-5.067-1.108-6.521-1.757c-1.45-0.649-3.688-0.487-4.183-0.13
	c-0.496,0.36-2.176,1.737-3.665,2.813c-1.486,1.078-3.941,1.719-4.092,2.718c-0.149,0.999,1.012,2.1,0.119,3.637
	c-0.893,1.535-0.081,1.028-1.265,2.048c-1.185,1.018-1.89,0.799-1.184,1.987c0.708,1.188,3.037-0.092,0.891,2.432
	c-2.146,2.523,0.288,4.485,0.014,5.329c-0.274,0.845-2.343,1.371,0.104,2.759c2.447,1.385,5.692,2.354,5.947,4.114
	c0.252,1.758,0.604,4.335,2.84,4.66c2.237,0.324,3.601-0.906,7.173-2.114s5.418-3.189,8.563-3.038
	c3.147,0.151,2.586,1.932,6.391-0.334c3.805-2.266,0.363-3.419,5.474-2.582c5.107,0.833,0.854-0.297,6.214,0.845
	c5.357,1.139,8.137,2.77,9.764,2.241c1.629-0.529,10.626-1.049,14.921-0.193c4.296,0.859,5.016,1.955,8.596,2.687
	c3.571,0.729,11.278,1.954,12.577,2.633c1.3,0.678,7.209,1.096,9.13,1.569C650.556,231.011,652.64,230.394,652.64,230.394z
	 M897.042,520.088c2.619-1.731,4.492-2.44,4.713-2.924s-0.111-1.212-0.111-1.212c-2.073-0.929-3.313,0.453-4.805,0.56
	c-1.49,0.108-4.442,0.142-5.514,2.371c-1.072,2.23-1.785,4.042-2.17,4.645C888.77,524.129,894.425,521.819,897.042,520.088z
	 M865.915,535.967c-0.932,2.293-4.348,5.411-2.553,6.216c1.797,0.805,5.967,0.54,3.762,2.458c-2.201,1.917,1.691,2.5-1.203,4.107
	c-2.896,1.609-2.699,2.276-3.942,1.719c-1.244-0.557-0.058-0.604-1.935-0.865c-1.879-0.26-3.231-0.092-3.588,1.301
	c-0.354,1.388,0.725,2.064-1.152,2.773c-1.873,0.709-5.237,2.494-3.498,2.693c1.738,0.198,7.005-2.479,9.324-2.214
	c2.32,0.263,3.621,1.428,2.105,2.684c-1.517,1.259-2.341,2.825-4.244,2.746c-1.904-0.076-3.17,1.485-5.244,0.559
	c-2.072-0.929-0.115-2.183-2.683-1.782c-2.565,0.4-3.012-0.573-4.969,0.681c-0.707,0.454-1.617,0.943-2.574,1.365
	c1.695-0.104,3.384-0.087,4.265,0.164c2.401,0.688,4.389,0.225,3.039,1.36c-1.351,1.14-3.113,2.092-3.029,2.517
	c0.084,0.426,0.777,1.704,0.668,2.429c-0.106,0.727,3.58-3.235,6.146-3.636c2.567-0.4-0.435,2.903,1.055,1.826
	c1.486-1.076,4.74-3.105,6.943-5.022c2.202-1.918,2.11-6.219,3.352-6.631c1.242-0.412,3.615-0.512,4.412-1.896
	c0.797-1.386-2.844,0.276-1.332-2.921c1.51-3.195,1.783-4.042,2.356-5.913c0.576-1.871,1.455-3.803,3.304-4.331
	c1.848-0.525,8.082-2.771,7.086-3.991c-1-1.222-1.912-2.017-1.912-2.017c-1.631-0.926,0.352-3.327-2.789-1.056
	c-3.143,2.271-5.51,5.277-7.221,4.896C868.151,535.807,866.849,533.675,865.915,535.967z M838.815,561.396
	c1.182,0.279,3.02-0.247,4.706-0.989C840.591,560.585,837.642,561.114,838.815,561.396z M842.233,548.403
	c-2.73,0.521-6.98,1.328-7.173,2.598c-0.299,2.004,10.597-1.837,11.564-1.404c0.967,0.434,2.234-0.159,3.447-1.359
	c1.211-1.201,5.461-2.009,5.319-3.039c-0.141-1.032-1.655,0.227-5.985,1.579C845.077,548.128,844.966,547.885,842.233,548.403z
	 M796.005,585.403c-1.875,0.71-1.014,3.806,1.086,3.582c2.099-0.222,1.185-1.018,3.996-3.051s3.688-3.964,5.896-3.942
	c2.206,0.021-0.105,2.665-1.978,4.344c-1.873,1.679-3.139,3.241-2.172,3.675s-0.02,3.089,2.268,1.597
	c2.288-1.493,3.804-2.75,5.265-3.646c1.459-0.894,1.377-1.319,1.951-3.191c0.575-1.871-0.531-3.338,0.819-3.505
	c1.353-0.17,4.855-0.923,5.354-0.312c0.5,0.606-2.562,2.337-1.508,3.193c1.051,0.857,5.247,1.383,6.021,2.117
	c0.775,0.732,0.059,1.574-1.43,2.65c-1.486,1.078-4.215,2.564-1.066,3.201c3.148,0.635,4.721-0.017,6.519,0.788
	c1.795,0.805,4.452,3.736,4.452,3.736s2.974-3.123-1.997-4.38c-4.974-1.258-8.479-1.475-7.322-2.312s6.313-2.787,3.551-4.023
	c-2.764-1.239-8.367-1.229-6.414-3.453c1.955-2.223,3.889-2.325-0.586-2.974s-6.27-0.483-7.922,0.713
	c-1.652,1.195-2.98,0.214-1.658-0.743c1.322-0.955,5.398-4.551,5.398-4.551c3.145-1.305,5.69,1.384,7.625,2.252
	c1.936,0.865,6.934,1.942,8.672,1.172c1.735-0.771,4.19-2.386,4.19-2.386s-6.067,2.125-7.647-0.131
	c-1.58-2.257-3.211-3.182-4.592-3.799c-1.384-0.618-4.146-0.889-6.9,0.782c-2.756,1.671-1.371,3.258-6.367,4.119
	c-4.994,0.86-6.262,1.456-6.922,1.935c-0.662,0.479,0.086,1.395-1.926,3.01C798.649,583.489,797.878,584.694,796.005,585.403z
	 M784.226,599.102c0.796-1.386-1.03-2.977-1.03-2.977l-3.754,0.45c0.83,0.371,1.139,2.25,2.104,2.684
	C782.515,599.691,783.427,600.487,784.226,599.102z M805.907,603.971c0.356-0.421-2.271-2.564-5.25-2.351
	c-2.982,0.213-4.779-0.591-5.881-0.115c-1.104,0.474-4.084,1.657-4.084,1.657c5.137,0.169,5.19-0.195,7.207,0.127
	C799.915,603.612,805.55,604.391,805.907,603.971z M830.519,609.956c3.921-0.566,2.849,1.664,2.849,1.664s3.555-3.058,3.58-4.207
	c0.022-1.15,3.66-3.781,0.875-2.899c-2.785,0.884-4.138,2.022-6.564,2.482c-2.428,0.462-4.442,0.14-3.945,0.75
	C827.811,608.356,830.519,609.956,830.519,609.956z M867.558,638.352c-0.864-3.098,3.384-4.875,2.025-5.676
	c-1.354-0.799-5.027-1.861-4.289-4.824c0.738-2.96,3.719-3.176,4.652-5.468c0.932-2.293,0.364-7.387-0.386-9.271
	c-0.75-1.885-8.969-10.02-9.94-12.393c-0.971-2.371-6.187-1.025-8.779-0.445c-2.594,0.582-6.129,0.548-5.635-0.78
	c0.494-1.327,4.764-5.225,3.488-7.538c-1.277-2.313-11.38-3.769-11.765-1.201c-0.354,2.359,2.074,1.898,1.422,5.284
	c-0.653,3.385-1.979,4.341,1.67,5.589c3.646,1.245,4.185,5.551,2.755,8.203c-1.431,2.65-4.828,0.741-6.841,2.356
	c-2.012,1.617-3.967,3.841-1.202,5.076c2.766,1.239,3.1,2.938,3.635,6.273c0.531,3.337-5.863,6.669-11.322,10.615
	c-5.453,3.945-9.094,5.608-13.908,1.322c-4.813-4.284,4.836-8.676,8.748-12.151c3.912-3.477-0.973-2.373-5.146-4.048
	c-4.172-1.676-4.535-3.191-8.043-4.378c-3.511-1.183-3.511-1.183-5.494,0.254c-1.982,1.435-5.515,2.369-10.398,3.476
	c-4.883,1.104-2.651-0.994-5.776-2.781c-3.123-1.786-4.419-1.011-12.257,0.127c-7.836,1.14-9.83-1.304-12.146,0.37
	c-2.314,1.675-4.959,3.587-9.566,4.817c-4.604,1.228-12.842-1.879-15.217-2.75c-2.377-0.87-5.521,0.435-10.297,0.813
	c-4.775,0.379-8.547,3.918-15.248,7.308c-6.699,3.391-6.799,7.022-9.688,11.539c-2.888,4.517-5.697,6.55-10.22,9.171
	c-4.52,2.623-5.373,3.401-2.688,7.123c2.688,3.72,15.578,2.328,18.065,4.409c2.49,2.084,10,2.153,20.492,2.979
	c10.49,0.826,12.785,2.241,15.449,7.112c2.664,4.87,1.342,6.796,2.008,8.257c0.668,1.46-1.787,2.103-2.338,3.793
	c-0.545,1.69,5.609,0.962,3.932,4.278c-1.674,3.313-2.055,5.854-0.141,8.842c1.91,2.986,5.969,2.479,9.396,4.206
	c3.428,1.729,5.221,1.564,10.575,2.221c5.359,0.656,5.773,0.843,10.599-1.838c4.823-2.68,15.834-5.303,24.604-8.732
	c8.771-3.432,16.867-10.261,20.972-14.038c3.176-2.923,5.186-8.682,5.493-13.219c0.209,0.778,1.048,1.374,1.05,2.016
	c0.002,0.969,0.196,1.637,0.422,3.092c0.225,1.456,2.235-0.159,4.055-1.478c1.818-1.313,0.188-2.237-1.029-2.977
	c-1.215-0.739-1.305-3.104-1.446-4.133c-0.107-0.803-1.175-3.554-2.813-5.264c1.135-4.306,3.824-9.163,6.139-11.062
	c3.361-2.755,1.07-3.2,1.755-5.797c0.682-2.601,5.842-4.549,7.409-6.17c1.568-1.622,5.588-5.823,11.328-6.737
	c5.74-0.915,2.08,3.835,1.535,6.496c-0.545,2.658,1.223,3.646,4.986,7.072c3.766,3.427,6.59,7.21,7.832,6.798
	C871.272,644.08,868.421,641.448,867.558,638.352z M830.671,658.236c1.191,1.888-0.217,1.449-1.481,3.014
	c-0.166,0.204-0.275,0.396-0.345,0.579c0.025-1.019-0.045-1.956-0.215-2.767c-0.236-1.118-0.156-2.521,0.148-4.036
	C829.394,656.111,830.116,657.356,830.671,658.236z M887.646,625.275c1.188-0.05,4.332-1.354,2.013-1.616
	c-2.32-0.266-5.297,0.918-7.035,1.689c-1.736,0.771-3.227,0.877-3.975-0.038c-0.748-0.916-1.636-1.893-1.636-1.893l-2.235-0.81
	c-0.498,0.359-1.349,2.107,0.256,3.215c1.604,1.104,4.008,1.794,6.408,1.513c2.399-0.28,2.293,0.445,3.614-0.511
	C886.38,625.869,886.462,625.324,887.646,625.275z M896.011,646.253c2.345-1.856,1.552,1.469,1.799,1.773
	c0.25,0.306,2.813-1.064,1.898-2.83c-0.916-1.767-2.045-0.141-3.459-3.485c-1.418-3.345-2.076-1.896-3.021-4.45
	c-0.946-2.554-1.364-3.708-0.731-4.973c0.633-1.268-0.916-1.767-0.916-1.767c-0.715,0.841-3.691,2.994-1.508,4.164
	c2.186,1.174,1.385,1.591,2.162,3.292c0.774,1.704,2.684,2.75,2.989,3.663c0.308,0.911,1.472,2.981,0.48,3.699
	c-0.992,0.716-2.732,0.521-2.814,1.063c-0.08,0.545,1.386,1.589,1.994,2.439c0.609,0.855-1.787,3.072-1.147,3.746
	c0.635,0.672,1.434-0.714,1.758-2.891C895.821,647.521,893.669,648.107,896.011,646.253z M868.315,687.482
	c0.829,0.371,2.678-0.154,2.483-0.823c-0.195-0.669,0.267-3.752-0.014-4.847c-0.277-1.094-2.104-2.686-1.334-3.89
	c0.77-1.205,1.672-4.285,1.672-4.285c-1.871,1.68-3.494,4.632-3.215,5.726c0.279,1.092,1.471,2.98,0.951,4.492
	C868.339,685.364,867.489,687.111,868.315,687.482z M846.841,579.703c0.219-0.482-1.162-1.103-1.162-1.103
	c-1.739-0.197-3.2,0.696-5.625,2.128c-2.428,1.433-5.184,3.103-5.317,4.009c-0.138,0.906-0.465,2.114-0.465,2.114
	s3.717-4.145,4.684-3.71c0.967,0.434,0.668,2.431,1.715,1.35s0.99-1.687,0.99-1.687s1.875-0.71,2.287-1.492
	c0.412-0.786-0.748-0.916-0.748-0.916S846.62,580.186,846.841,579.703z M806.368,600.886c0,0-8.035-1.47-8.84-2.021
	c-0.802-0.556-1.988-0.504-2.295-1.415c-0.306-0.913-0.796,1.386-3.81-0.158c-3.014-1.543-1.744-2.137-2.713-2.569
	c-0.967-0.434-3.256,0.091-3.256,0.091c1.162,1.102,3.789,3.247,7.131,3.579c3.34,0.336,6.244,1.636,7.238,1.889
	C800.819,600.531,806.368,600.886,806.368,600.886z M861.331,545.919c1.322-0.956,0.104-2.664-0.588-2.974
	c0,0-1.377,1.319-1.513,2.228c-0.137,0.906-0.852,1.747-0.852,1.747S860.009,546.875,861.331,545.919z M844.694,322.974
	c1.823,0.622,6.02,0.178,6.02,0.178s-0.17-1.819-1.414-2.376s-4.778-1.56-4.778-1.56C843.915,320.3,842.872,322.351,844.694,322.974
	z M644.399,339.196c-2.294-0.444-0.441-0.003-2.294-0.444c-1.85-0.442-0.418-1.155-1.85-0.442c-1.436,0.712-1.32,1.927-2.809,3.001
	c-1.488,1.077-3.808,1.784-2.838,2.216c0.965,0.433,2.649,0.994,4.03,0.642c1.379-0.35,3.363-1.784,4.189-2.382
	c0.826-0.599,0.965-0.537,2.344-1.857c1.375-1.32,1.349-2.108,1.349-2.108c1.129-0.653,4.553-0.865,3.059-1.727
	c-1.494-0.862-2.846-0.692-3.342-0.333c-0.494,0.358-1.183,1.988-1.183,1.988l0.664,0.489
	C645.722,338.239,646.69,339.644,644.399,339.196z M673.392,374.059c0.55-0.722-2.104-2.687-2.821-2.813
	c-0.72-0.127-5.662-0.599-5.662-0.599c0.967,0.433,3.479,1.366,4.34,2.525C670.108,374.331,672.841,374.779,673.392,374.059z
	 M692.823,384.115c0,0,3.01-0.396,2.594-0.582c-0.414-0.186-2.68-0.812-3.51-1.184c-0.828-0.371-3.09-0.028-3.09-0.028l-1.82,0.345
	c0.442,0.975,1.936,1.836,2.651,1.965C690.368,384.757,692.823,384.115,692.823,384.115z M772.903,251.91
	c3.151,1.605,4.811,2.348,4.065,3.37c-0.742,1.023,5.857,1.266,6.658,1.819c0.805,0.553-4.416-0.042-4.416-0.042
	s-3.949-0.22-0.82,2.538c3.123,2.753,2.547,3.658,3.238,3.968c0.689,0.308,2.979-1.185,4.883-1.108
	c1.904,0.081,6.129,0.423,8.063,0.32c1.932-0.104,3.145-0.333,3.479,1.366c0.338,1.699-4.324,3.291-3.106,4.028
	c1.215,0.739,0.026,0.788,3.922,1.37c3.895,0.581,7.184,1.278,8.422,0.867c1.242-0.413,0.49-3.267-0.728-4.004
	c-1.217-0.738-2.737-2.389-2.243-2.747c0.495-0.358,1.354-0.168,1.989,0.504c0.638,0.671,3.457,2.515,6.164,3.146
	c2.707,0.631,6.738,1.277,7.953,1.044c1.215-0.23,4.803,0.41,2.012-1.616c-2.795-2.025-6.854-3.458-8.93-4.384
	c-2.072-0.93-7.352-3.099-7.6-3.405c-0.25-0.305-6.219-2.784-7.129-2.611s-2.064,1.979-4.414,0.928
	c-2.351-1.051-3.398-0.939-5.252-2.35c-1.854-1.411-2.771-3.177-3.57-3.729c-0.803-0.554-9.363-2.451-9.363-2.451
	C774.638,249.201,769.753,250.305,772.903,251.91z M981.116,352.303c3.729,0.703,5.166,0.958,6.299,1.273
	c1.133,0.313,4.059,0.461,4.059,0.461s-2.102-1.715-2.877-2.451c-0.774-0.735-1.659-1.712-2.819-1.844
	c-1.16-0.131-2.097,1.192-3.447,1.361c-1.352,0.169-4.309-0.768-3.508-0.216C979.624,351.442,981.116,352.303,981.116,352.303z
	 M996.952,347.971c1.688,1.529,2.904,2.268,3.897,2.52c0.994,0.252,5.966,0.541,5.607,0.962c-0.357,0.42-4.193,1.414-1.898,2.829
	c2.298,1.414,3.232,1.061,6.386,2.664c3.149,1.605,5.309,2.959,5.887,3.025c0.58,0.067,2.736,0.449,2.377,0.871
	c-0.359,0.419-3.033,1.546-3.033,1.546s2.461,1.294,5.806,2.598c3.344,1.304,4.311,1.738,6.106,2.542
	c1.795,0.805,5.111,1.319,5.605,0.96c0.495-0.358,0.163-1.088-3.209-3.18c-3.373-2.091-2.824-2.812-4.951-3.378
	c-2.125-0.565-3.84-0.945-3.84-0.945l2.038-1.798c0,0-1.938-1.834-4.756-2.71c-2.815-0.873-1.856-3.348,0.216-2.421
	c2.073,0.928,5.911,1.873,2.565-0.398c-3.346-2.273-3.375-3.061-5.42-4.17c-2.047-1.11-4.695-0.167-6.104-0.603
	c-1.408-0.437-5.111-1.32-5.111-1.32C1002.501,347.357,995.265,346.44,996.952,347.971z M1185.224,466.946
	c-4.231-4.22-1.264-5.199-8.229-8.899c-6.967-3.699-4.316-5.724-7.818-7.291c-3.502-1.566-11.373-0.188-10.494-2.119
	c0.877-1.93,12.479,0.684,12.877-1.979c0.398-2.662-3.834-0.292-8.557-4.214c-4.721-3.921-9.15-8.485-15.52-9.272
	c-6.369-0.786-1.296-3.162-0.49-4.607c0.807-1.445-5.813-3.882-11.668-5.471c-5.857-1.59,2.639-4.498-1.709-5.67
	c-4.346-1.171-28.111-10.521-27.111-8.008c1,2.511,1.16,8.006-1.418,6.851c-2.58-1.154-1.674-7.203-5.836-8.293
	c-4.164-1.089-3.756,0.125-6.553,0.424c-2.797,0.297-17.049-2.986-22.066-7.558c-5.018-4.57-7.742-4.758-9.217-5.418
	s-2.15-6.643-7.523-6.209c-5.375,0.434-12.66,0.527-10.164-1.712c2.496-2.237,9.568-0.879,6.209-4.705
	c-3.358-3.829-10.832-3.817-16.475-8.151c-5.242-4.024-11.025-7.845-23.592-9.709c-0.213-0.281-0.434-0.5-0.617-0.616
	c-1.078-0.675-1.992-1.472-3.15-1.604c-1.159-0.132-3.424,0.21-4.114-0.1c-0.689-0.309-3.119-0.818-4.916-1.621
	c-1.797-0.805-3.674-1.065-6.023-2.116c-2.35-1.053,1.4-2.471-1.223-2.678c-2.623-0.206,0,0-0.578,0.903
	c-0.576,0.905-4.443,0.142-6.459-0.181c-2.019-0.322-2.297-1.415-3.623-2.397c-1.328-0.98-0.473-1.761-2.766-2.206
	c-2.295-0.445-1.988,0.465-1.929,2.042c0.06,1.574-2.1,0.221-3.896-0.583c-1.795-0.805-2.187-2.14-4.42-1.98
	c-2.234,0.161-4.472,0.322-5.576-0.174c-1.104-0.494-2.986-1.723-5.996-1.327c-2.414,0.316,0.437,0.994-3.938,0.949
	c-2.013-0.856-3.461-1.66-4.15-2.378c-0.256-0.268-0.504-0.545-0.752-0.831l0.529-0.303c0,0,4.44-0.139,5.655-0.37
	c1.216-0.231-1.246-1.526-1.744-2.136c-0.497-0.611-1.493-0.862-2.733-0.451c-0.916,0.305-2.642,0.139-4.648-0.489
	c-3.521-4.594-7.963-9.661-18.209-10.65c-13.955-1.341-10.223,3.943-16.59,4.45c-6.367,0.504-10.789-1.475-11.852,0.372
	c-1.064,1.846-1.062,3.14-5.595,0.593c-4.534-2.547-10.137-5.83-11.614-7.782c-1.478-1.953-9.705-10.025,7.338-9.623
	c17.045,0.403,38.705,8.036,40.91,6.442c2.202-1.595-6.634-2.97-13.814-4.894c-7.184-1.926-12.496-7.146-29.762-7.389
	c-17.265-0.244-22.412,1.322-20.306,4.333c2.105,3.006,13.459,9.898,11.363,10.769c-2.096,0.867-10.502-4.703-18.565-5.991
	c-8.064-1.288-17.562-0.893-18.931-3.57c-1.367-2.678-3.955-6.419-6.531-6.281c-2.575,0.138-4.221,4.564-8.051,3.881
	c-3.828-0.682-11.184,2.479-15.971,1.626s-11.924-13.599-11.924-13.599s14.758,13.061,23.547,9.51
	c6.688-2.705-8.443-13.386-17.678-19.629c0.465-0.23,0.848-0.418,1.079-0.518c1.103-0.473-0.446-1.943-1.276-2.314
	c-0.683-0.306-4.039-1.415-7.271-2.291c-0.789-0.485-1.782-1.029-2.948-1.607c0.813-0.407,2.485-0.775,2.864-1.138
	c0.689-0.661-5.196-2.714-5.196-2.714s-3.369,0.242-6.355,0.257c-2.371-0.828-4.959-1.621-7.688-2.314
	c-1.425-0.759-3.39-1.658-6.341-2.617c-6.325-2.058-6.791,0.057-8.364-0.261c-1.574-0.316-2.072-0.927-5.084-1.502
	c-3.011-0.573-5.468,0.071-4.828,0.743c0.635,0.672-3.006,1.365-4.357,1.535c-1.352,0.167-5.274-0.231-6.6-0.245
	c-1.324-0.014-5.104,1.586-6.814,2.176c-1.354,0.466-5.114,0.951-8.705,1.835c-0.174-0.004-0.346-0.012-0.51-0.023
	c-6.221-0.464-17.016-4.521-24.363,1.225c-7.346,5.746-2.26,8.538,1.351,9.381c3.608,0.842,10.383,1.551,10.383,1.551l-5.83,8.748
	c0,0-1.162-8.006-10.359-6.961c-9.198,1.044-10.323,7.254-10.323,7.254s-13.556-2.713-14.996-4.908
	c-1.441-2.195,8.604-3.634,8.604-3.634s-6.375-3.371-8.289-2.419c-1.91,0.95,0.672,3.398,0.672,3.398s-2.172,0.06-3.646-0.602
	c-1.473-0.657-5.754-4.9-4.578-6.18c1.174-1.282-0.453-4.204-0.453-4.204s5.205-1.285,6.347-1.677
	c1.139-0.393,2.133-0.464,1.909-0.95c-0.223-0.488-5.453-2.313-4.682-2.87c0.771-0.559,4.287-0.406,4.58-1.048
	c0.293-0.645-5.492-2.719-6.631-2.325c-1.142,0.394-4.562,1.571-5.537,1.523c-0.976-0.051-0.354-1.578-2.154-1.353
	c-1.805,0.225-0.934,2.291-1.504,2.813c-0.568,0.519-3.049,1.991-2.828,2.477c0.224,0.486,4.625,1.296,3.318,2.131
	c-1.306,0.836-3.529,1.259-3.638,2.63c-0.106,1.373,2.218,2.93,1.076,3.323c-1.141,0.392-4.768-0.328-6.494,0.706
	c-1.729,1.034-4.782,1.73-4.782,1.73l1.791,2.481c0,0-8.632-0.123-8.464,0.727c0.168,0.85,7.462,2.695,9.046,3.277
	c1.584,0.578,9.471,4.369,12.434,3.629c2.961-0.74,10.625-4.666,11.107-2.642c0.483,2.023-12.798,4.726-17.75,3.669
	c-4.953-1.057-7.496-2.453-8.181-2.501c-0.68-0.045-0.104,2.021-2.459,1.351c-2.358-0.667-7.403-1.767-8.545-1.373
	c-1.139,0.393,6.035,6.315,1.813,10.234c-4.226,3.917-7.162,6.475-10.352,4.789c-3.188-1.686-12.052-6.172-13.69-7.036
	c-1.642-0.864-4.09-1.572-5.598-0.697c-1.506,0.875-3.356,4.047-6.242,5.594c-2.887,1.548-7.888,3.44-8.897,4.277
	c-1.009,0.838,0.777,1.381-1.501,2.813c-2.279,1.432-3.895,2.387-3.895,2.387s1.307,0.455,3.186,1.039
	c1.879,0.583,3.813,1.449,2.695,3.013c-1.12,1.565,0.391,1.982,2.654,1.964c2.265-0.02,6.41,2.485,9.483,2.31
	c3.072-0.172,6-0.024,6.865,0.105c0.864,0.13,5.26-0.999,6.326-1.555c1.065-0.556,0.767-2.496,5.311-3.302
	c4.544-0.806,12.83,0.323,14.058-0.674c1.23-0.998,1.853-3.172,6.123-2.81c4.271,0.363,5.422,4.494,6.527,4.342
	c1.102-0.151,5.188,0.129,6.697-0.1c1.51-0.227,6.401-1.393,5.455,2.315c-0.949,3.706-3.056,7.927-0.713,10.008
	c2.344,2.081,3.817,2.742,3.196,4.269c-0.625,1.528,0.519,1.782,0.189,2.667c-0.33,0.886-1.043,2.374-2.072,2.687
	c-1.031,0.313-1.82,0.991-3.568,0.854c-1.75-0.138-5.344-2.392-7.149-2.814c-1.803-0.42-2.762-0.591-3.053,0.052
	c-0.293,0.643,1.827,2.884,2.127,4.18c0.297,1.295,1.385,1.911,1.385,1.911l1.893-0.832c0,0,0.605-1.407,1.615-1.6
	c1.014-0.193,2.906-0.377,3.223,0.152c0.314,0.528,2.869-0.134,3.201-0.373c0.33-0.239,2.244-0.544,2.814-0.419
	c0.57,0.129,2.301-0.26,2.115-0.989c-0.188-0.727-0.693-1.279,0.489-1.973c1.187-0.696,2.408-1.311,3.011-0.396
	c0.6,0.913,0.758,1.825,0.539,2.308c-0.222,0.481,1.5,0.479,1.987-0.144c0.484-0.621,1.146-1.746,0.14-2.583
	c-1.007-0.839-1.968-2.625-1.48-3.244c0.486-0.621,2.271-0.726,0.336-1.593c-1.935-0.867-2.85-3.276-1.705-4.699
	c1.148-1.424,1.092-1.707,0.859-2.78c-0.232-1.074,0.129-3.167,2.602-3.61c2.476-0.441,2.289,1.799,2.488,4.083
	c0.199,2.283,3.021,5.742,3.348,6.856s2.193,4.402,1.256,5.08c-0.938,0.679-5.039,2.133-4.844,3.124
	c0.197,0.991,0.057,3.576-0.832,4.921c-0.891,1.343-0.629,2.233-0.529,2.538c0.105,0.303-1.838,0.144-1.965,0.992
	c-0.127,0.846,1.07,0.735-0.399,1.692c-1.47,0.954-1.259,0.856-0.271,1.49c0.986,0.636,1.586,1.873,1.597,2.136
	c0.01,0.262,2.34-2.825,2.893-2.578c0.553,0.25,1.848-1.172,2.564-1.044c0.719,0.127,0.625,2.407,1.614,2.013
	c0.994-0.393,2.564-1.045,2.48-1.794c-0.086-0.746,0.371-2.479,0.461-3.083c0.092-0.606,0.6-2.701,1.934-3.072
	c1.334-0.371,0.513,1.519,2.205,1.696c1.693,0.178,3.31-1.101,4-0.79c0.691,0.31,0.902,0.533,2.517,1.255
	c1.612,0.723,1.983,2.181,1.983,2.181s-2.961,0.738-3.897,1.74c-0.935,1,1.145,0.898-0.601,2.375
	c-1.746,1.479-2.526,1.773-2.617,2.377c-0.092,0.607-0.383,1.896-1.063,2.495c-0.678,0.6-0.373,1.188,0.502,1.579
	c0.877,0.392,2.514,0.932,1.836,1.854c-0.678,0.923-0.557,1.752,0.953,2.17c1.512,0.418,3.438-0.976,4.369-0.624
	c0.93,0.353,2.26,1.979,2.539,3.395c0.28,1.417,3.354,2.214,4.645,2.144c1.289-0.067,3.281-0.916,3.91-0.184
	c0.627,0.732,1.916,1.309,2.965,1.199c1.049-0.111,1.703,0.116,0.656,0.552c-1.047,0.433-2.152,0.261-2.996,0.981
	c-0.846,0.718-1.27,0.916-2.067,1.654c-0.8,0.741-2.472,2.057-5.209,2.96c-2.74,0.904-10.175,5.256-12.919,4.541
	c-2.743-0.711-2.106-3.978-6.188-4.64c-4.076-0.665-6.963,0.558-9.082-0.712c-2.121-1.273-6.484-5.615-7.59-5.787
	c-1.104-0.17-0.748-1.238-0.363-1.518c0.387-0.279-3.084-1.381-3.229-2.734c-0.142-1.354-0.627-4.996-6.425-4.362
	c-5.795,0.633-5.553,1.644-6.618,2.521c-1.064,0.88-4.373,2.625-5.232,1.145c-0.859-1.483-1.787-4.803-3.51-5.445
	c-1.724-0.642-1.332-2.275-0.396-3.6c0.937-1.322-1.297-3.807-3.186-4.33c-1.888-0.521-3.416-0.818-3.439-2.636
	c-0.022-1.818-0.274-3.737,0.562-4.074c0.836-0.334,3.684,1.327,4.979,0.551c1.295-0.775-0.842-1.28-0.311-2.204
	c0.53-0.924,0.153-1.028,0.354-1.712c0.199-0.684,0.438-1.288,1.689-1.438c1.25-0.15,2.942-0.618,2.99-0.919
	c0.043-0.303-2.617,0.056-2.314-0.648c0.301-0.704,0.521-1.509-0.988-1.929c-1.51-0.417-4.225-0.019-5.313-1.281
	c-1.09-1.261-2.185-1.172-3.861-1.792c-1.675-0.623-3.109,0.089-4.169-0.384c-1.059-0.474-3.422-2.758-6.938-3.559
	c-3.518-0.799-12.282-2.336-14.924-2.098c-2.64,0.237-4.313,0.263-5.367-1.243c-1.054-1.505-5.645-1.367-5.498-2.333
	c0.144-0.968,0.085-2.542,0.085-2.542l-2.779-0.149c0,0-5.294,2.536-12.582,2.628c-7.288,0.094-10.595,2.485-14.049,4.553
	c-3.455,2.068-8.64,3.875-14.862,3.413c-6.222-0.461-15.155,4.057-19.313,4.261c-4.159,0.201-11.143,14.563-12.863,18.182
	s-4.655,7.466-13.295,11.344c-8.64,3.877-19.116,9.512-17.316,22.451c1.801,12.939,1.908,8.649,4.495,12.391
	c2.585,3.739,8.577,6.938,13.145,7.952c4.566,1.013,4.801,6.021,3.702,8.111c-1.1,2.09,16.124,1.281,5.468,8.127
	c-10.658,6.846-8.695,4.642-10.235,7.05c-1.54,2.409,3.492,5.693,0.303,11.235c-3.188,5.543-5.426,8.672-8.074,9.293
	c-2.648,0.622-1.572,3.941-6.021,6.082c-4.448,2.138-13.282,2.056-21.949,10.05c-8.666,7.995-6.961,12.373-13.829,18.851
	c-6.866,6.477-10.837,8.055-13.028,14.816c-2.192,6.764-3.949,10.624-7.439,12.934c-3.491,2.313-6.1,3.98-4.586,5.691
	s9.022,1.457,15.362,5.071c6.34,3.611,24.924,1.606,35.146-2.333c10.224-3.943,17.793-8.557,21.219-7.797
	c3.425,0.759,9.973-0.957,16.182-5.663c6.208-4.705,16.217-5.904,25.343-6.463c9.127-0.562,19.083-7.979,23.341-12.785
	c4.259-4.806,10.227-17.105,31.86-21.103c21.633-3.995,41.14-4.297,56.691-12.307c15.549-8.011,17.975-8.474,12.782-9.248
	c-5.188-0.776-20.905-0.844-19.668-5.193c1.24-4.35,5.476-3.743,4.877-7.627c-0.6-3.883-2.561-7.856-0.58-10.586
	c1.982-2.727,4.869-10.211,9.06-13.241c4.188-3.027,5.715-10.605,8.541-13.729c2.826-3.124,4.912-7.868,8.963-7.346
	c4.051,0.521-2.211,13.467-4.74,17.238c-2.531,3.771-10.998,18.311-14.85,23.039c-3.854,4.729-5.101,6.493-0.351,7.588
	c4.753,1.097,25.845,0.729,34.531,1.78c8.689,1.05,32.021-1.153,35.474-4.512c3.448-3.36-1.488-5.83-0.429-8.97
	c1.06-3.141,7.129-4.293,1.937-5.07c-5.189-0.774-14.113-6.836-11.875-9.964c2.235-3.129,3.918-7.797,5.979-7.131
	c2.063,0.665-1.6,8.062,3.563,11.662c5.163,3.602,8.885,5.01,8.635,7.995c-0.25,2.986,21.594,9.411,19.803,14.807
	c-1.789,5.396-0.231,9.445-1.617,14.765c-1.387,5.317-10.741,17.91-16.43,24.397c-5.688,6.488-9.576,11.46-7.219,12.772
	c2.359,1.313,16.846-2.494,15.014,0.556c-1.832,3.054-11.588,6.428-8.774,7.407c6.561,2.284,5.146-0.764,8.405-6.79
	c3.261-6.024,6.174-7.6,12.236-11.339c6.064-3.737,11.951-4.976,20.561-6.024c8.611-1.049,31.021-3.663,33.795,1.449
	c2.773,5.115,1.097,11.075-4.051,13.936c-5.146,2.859-1.276,4.592-0.977,6.532c0.299,1.94,3.43,2.052-4.543,8.033
	c-7.976,5.983-12.049,9.578-16.334,18.503c-4.283,8.924-5.531,10.688-6.75,8.337c-1.224-2.355-0.642-6.228-2.969-9.074
	c-2.326-2.85-1.271-7.281-3.988-4.885c-2.719,2.398-4.103,7.716-6.695,15.848c-2.594,8.135-2.393,14.678-5.246,20.626
	c-2.856,5.951-2.67,7.326,5.888,14.515c8.559,7.188,23.961,13.31,23.961,13.31s-9.521-9.943-12.992-14.338
	c-3.474-4.396-5.463-5.543-2.156-7.936c3.307-2.392,6.979-5.91,7.33-12.207c0.354-6.297,8.252-11.794,9.934-16.464
	c1.681-4.667,4.441-19.179,13.271-20.389c8.832-1.208,3.152,9.157,0.068,11.389c-3.089,2.232,5.754,4.899,17.081,1.453
	c11.328-3.447,15.482-4.941,18.668-11.776c3.185-6.836,6.814-12.695,13.287-13.928c6.478-1.229,7.625,1.605,2.771,3.82
	c-4.853,2.216-8.748,4.603-5.066,4.96c3.683,0.356,10.74-3.452,14.64-4.546c3.898-1.095,16.87,5.488,33.83,1.207
	c16.956-4.282,27.442-6.04,35.225-14.689c7.779-8.65,5.938-9.475,9.176-10.091s5.156,1.018,7.213-0.9
	c2.056-1.919-2.373-6.483,3.443-5.943c5.815,0.539,9.17,1.78,5.977,4.739c-3.194,2.958,3.175,3.745-3.698,7.639
	c-6.873,3.893-6.646,6.316-0.353,6.297c6.295-0.021,11.224-1.429,13.896-6.169c2.676-4.74,0.205-6.621,3.369-6.752
	c3.166-0.132,8.651,0.001,10.563-0.951c1.912-0.951,6.656-2.441,11.74-0.939s15.612,3.378,30.656-1.245
	c15.045-4.623,22.612-9.235,23.317-7.37c0.705,1.863-16.383,13.573-24.324,16.729c-7.942,3.155-7.432,1.061-16.325,6.63
	c-8.896,5.571-22.363,6.251-26.894,4.996c-4.533-1.255-19.403-1.718-22.86-0.941c-3.457,0.773-8.193,6.142-6.978,7.203
	c1.219,1.063,8.902-2.984,13.652-1.892c4.752,1.095,11.521,0.513,15.908,2.735c4.387,2.222,7.707,4.998,13.731,1.502
	c6.029-3.497,11.506-5.949,14.521-7.697c3.016-1.748,8.559-7.269,10.36-7.494c1.803-0.225,5.086,2.795,11.16,2.932
	c6.076,0.14,19.469-1.351,19.469-1.351s-17.192-2.02-17.825-4.369c-0.632-2.347-0.859-4.771,1.938-5.068
	c2.797-0.295,7.203-4.777,10.332-4.667c3.129,0.108,1.107,1.786,7.539-3.079c6.428-4.866,11.49-11.118,9.869-12.104
	c-1.623-0.982-13.853-4.651-13.379-6.504c0.473-1.854-1.961-3.977-1.961-3.977s12.442-11.456,29.137-3.465
	c16.694,7.99,18.893,6.369,21.91,5.912c3.018-0.456,18.512-1.521,19.475,1.234c0.965,2.754,7.223,2.975,7.814,4.271
	c0.594,1.299-6.58,3.25-15.712,2.518c-9.131-0.732-18.366-0.738-23.106,3.336c-4.738,4.074-11.824,10.712-10.422,11.855
	c1.401,1.143,12.469-3.194,18.84-2.408c6.369,0.79,9.016-1.125,11.735-2.231c2.72-1.104,8.351-1.939,9.306-3.062
	c0.955-1.12,1.899-4.828,9.559-3.463c7.662,1.362,9.828-2.962,9.687-0.703c-0.142,2.262,11.965,0.193,18.153,2.189
	c6.187,1.997,1.552-4.584,3.394-3.759c1.844,0.824,6.504-4.06,9.084-2.903c2.58,1.155,8.721-0.722,11.547,4.03
	C1174.823,480.296,1189.458,471.164,1185.224,466.946z M735.896,299.717c2.579-0.976,4.979-1.255,7.188-1.234
	c2.209,0.02,4.529,0.769,5.814,1.054c1.282,0.285,2.846,0.692,4.043,0.069c1.2-0.625,1.905,0.077,2.856-0.852
	c0.949-0.93-0.776-1.704,1.832-1.408c2.609,0.298,6.32-0.363,6.476,0.578c0.153,0.938,0.021,2.815-2.796,2.91
	c-2.813,0.095-4.497,0.502-6.817,0.238c-2.318-0.263-3.289-1.179-4.724-0.953c-1.434,0.231-3.405,1.088-3.266,2.121
	c0.141,1.032-0.297,2.48-2.367,3.006c-2.067,0.525-5.53,1.008-7.563-0.193c-2.031-1.201-2.568-1.055-3.263-1.848l-0.192-0.185
	C732.755,301.991,733.315,300.692,735.896,299.717z M752.444,315.743c-2.103-1.714-12.873-3.635-14.931-3.2
	c-2.053,0.435-3.668,1.36-5.555,2.158c-1.891,0.801-4.816,1.137-6.275,2.032c-1.463,0.895-0.057,0.847-0.782,1.78
	c-0.729,0.933-7.08,0.994-8.818,1.281c-1.736,0.286-0.557-2.188-2.451-3.325c-1.893-1.138-3.938-1.764-5.262-1.291
	c-1.324,0.471-3.146-0.151-4.213-1.404c-1.066-1.25,1.42-0.621,2.537-0.702c1.116-0.081,0.053-0.849-3.052-0.787
	c-3.104,0.063-3.469-1.541-2.201-2.049c2.511-1.006,3.082,1.089,6.158,0.722c3.076-0.363,4.09,1.251,7.554,1.255
	c3.465,0,4.19-2.385,5.745-3.43c1.56-1.045,6.502-0.09,8.709-0.555c2.207-0.463,8.162,1.138,10.304,2.097
	c2.145,0.959,11.674,3.774,16.426,5.032c4.752,1.255,3.479,0.878,2.375,1.354C757.61,317.187,754.548,317.458,752.444,315.743z
	 M736.409,377.105c-2.646,1.429-7.633-0.223-10.853-1.375c-3.219-1.151-3.823-5.488-7.887-6.918
	c-4.061-1.432-7.83-1.861-12.676-2.482s-8.041-2.438-7.105-4.247c0.935-1.809,2.144-3.494,2.943-3.909
	c2.639-1.374,5.27-1.223,6.771-1.904c1.505-0.684,8.361-1.68,11.605-1.195c3.246,0.485,5.67,3.991,4.375,5.25
	c-1.293,1.261,0.418,1.155,2.213,1.476c1.795,0.321,7.664,1.494,8.609,4.049c0.944,2.553,1.59,5.649,2.35,6.473
	C737.519,373.147,739.058,375.675,736.409,377.105z M753.997,404.438c-0.691,0.177-2.709-0.631-5.65-1.656
	c-2.942-1.028-3.059-3.21-2.729-4.418c0.326-1.208-2.158-1.837-0.521-3.428c1.639-1.59,2.593-1.551,3.775-2.086
	c1.186-0.533,1.063-0.686,3.365-1.301c2.305-0.613,2.184,0.688,3.272,0.789s0.578-0.42,0.246-1.633
	c-0.336-1.217-0.299-2.942,0.012-5.513c0.312-2.571,1.248-3.411,3.48-4.54c2.234-1.131-0.277-1.093,1.348-2.107
	c1.627-1.015,5.299-0.92,8.488-0.557c3.189,0.363,3.479,0.396,5.051,0.229c1.576-0.165,0.025-1.15,1.392-1.408
	c1.366-0.26,4.008,1.31,3.998,2.854c-0.011,1.544-2.371,1.068-3.255,1.059c-0.885-0.009-4.334,0.385-4.651-0.438
	c-0.32-0.82-0.847-0.765-1.713,0.105c-0.867,0.869-0.631,1.752-0.836,2.627c-0.205,0.877-1.095,4.352,0.164,5.303
	c1.26,0.951-1.623,1.5-2.438,2.005c-0.813,0.508-1.316,2.41-2.518,3.035c-1.199,0.623-3.334,2.574-3.994,3.536
	c-0.658,0.963,0.545,2.276-0.199,2.815S755.288,404.11,753.997,404.438z M956.21,349.284c0.414,0.184,2.432,1.476,3.396-0.03
	c0.961-1.506,0.403-2.722,1.178-2.956c0.771-0.237,2.457,0.326,3.147,0.634c0.691,0.31-3.539-1.972-4.092-2.218
	c-0.553-0.248-0.992,0.716-0.578,0.903c0.416,0.186,1.773,1.954-0.381,1.572c-2.154-0.385-3.51-1.184-3.758-0.521
	C954.776,347.607,955.794,349.098,956.21,349.284z M365.539,389.754c-0.313-3.819-0.323-7.698-5.159-9.863
	c-4.837-2.165-5.738-8.958-5.908-10.777c-0.17-1.818-1.78-5.833,0.859-9.685c2.641-3.851,0.906-12.953,0.955-15.254
	c0.049-2.302-7.767-3.286-9.219-10.324c-1.454-7.039,5.396-5.521-1.269-10.248c-6.666-4.728-10.476-4.885-14.4-7.222
	c-3.928-2.34-1.896-7.046-5.488-8.654c-3.593-1.608-20.206,1.021-23.655,1.413c-3.45,0.391-3.038-0.393-3.901-3.489
	c-0.864-3.098-8.034-0.5-10.42-5.247c-2.386-4.747,19.571-11.569,22.023-13.181c2.453-1.612-0.834-2.31-6.194-3.934
	c-5.359-1.625-13.041-4.484-13.041-4.484s5.209-3.283,9.729-5.904c4.521-2.624,12.772-3.574,14.007-6.896
	c1.233-3.319-7.381-3.883-12.708-3.752c-5.328,0.131-14.503,7.252-20.757,1.742c-6.252-5.511,12.961-16.658,16.517-18.744
	c3.556-2.086,5.318-4.008,12.272-5.154s13.48,3.518,17.515,5.131c4.035,1.613,10.961,0.65,15.132,1.354
	c4.17,0.707,3.131,4.695,1.435,10.129c-1.697,5.438-9.614,8.087-9.614,8.087s5.584,3.083,11.543,1.686
	c5.959-1.398,14.765-12.944,19.672-15.202c4.908-2.255,23.904-1.107,27.16-2.167c3.254-1.058,5.591-4.854,15.741-8.635
	c10.149-3.781,15.711,1.422,16.401,1.73c0.691,0.308,2.453-1.612,3.387-3.904c0.933-2.294,5.128-2.74,8.661-2.705
	c3.533,0.032,15.297,1.234,15.297,1.234s-4.333,0.381-7.007,2.477c-2.673,2.096,3.371,1.123,9.39,1.3
	c6.019,0.179,15.297,1.236,15.297,1.236l1.153-2.775c0,0-5.026-0.896-7.544-2.798c-2.518-1.899-0.672-3.398,2.302-6.519
	s-15.775-4.935-15.775-4.935s8.279-1.133,13.276-1.025c4.996,0.108,16.525,6.819,19.04,7.751c2.514,0.932,9.438-1.001,13.335,0.551
	c3.896,1.55,7.894-0.532,9.518-2.516c1.624-1.983-1.893-6.074-3.458-13.359c-1.563-7.283,3.191-15.415,3.191-15.415
	s-6.345,1.999-10.513,2.262c-4.168,0.263-6.189-1.996-4.792-6.405c1.396-4.409-1.433-9.16-4.528-11.128
	c-3.098-1.97-11.996-5.567-11.996-5.567s-1.873,1.679-5.069,4.313c-3.195,2.636-9.6,3.06-9.6,3.06s3.658,5.122,0.215,8.422
	c-3.443,3.299-15.265,0.522-15.265,0.522s-6.387,7.208-7.935,6.709c-1.546-0.499,0.699-7.625,3.204-10.57
	c2.504-2.945-7.938-6.072-12.479-11.202c-4.54-5.131-11.157-12.16-5.754-15.744c5.4-3.583,21.523-2.946,27.766-2.283
	c6.24,0.665,16.284-1.421,16.284-1.421s-6.011,2.73-9.931,3.299c-3.919,0.569-2.068-0.103-0.269,2.784
	c2.458,3.941,7.98,0.863,10.498,2.764c2.517,1.902,7.435,3.523,7.435,3.523s-6.312-7.086-5.985-9.264
	c0.326-2.178,5.823-0.49,9.552,0.211c3.729,0.702,5.521-0.433,5.269-1.707c-0.252-1.274,1.404-1.501,4.717-1.955
	c3.312-0.453,1.038-3.987,2.751-3.608c1.712,0.379,6.305,4.178,4.65,5.375c-1.651,1.195-4.025,1.294-3.359,2.754
	s1.502,4.739-0.62,6.112s-13.494,2.478-8.134,4.103c5.359,1.626,11.861,7.441,12.892,10.419c1.029,2.978,10.986,10.34,11.757,10.104
	c0.773-0.234-2.699-8.565-2.699-8.565s5.922,5.751,8.687,6.988c2.764,1.237,5.325-1.103,4.713-2.924
	c-0.613-1.824-4.022-7.61-0.047-7.573c3.976,0.037,2.663,4.871,4.711,6.95s10.767-0.02,12.062-0.794
	c1.297-0.776-3.325-5.363-6.125-9.327c-1.061-1.503-1.395-2.764-1.44-3.958c-0.036-0.906,2.687-0.857,2.789-1.763
	c0.119-1.051-2.392-3.072-2.644-4.347c-0.48-2.438-7.117-8.656-12.405-13.537c-1.167-1.079,0.354-2.108-0.602-3.001
	c-1.501-1.401-5.266-2.488-5.731-3.083c-2.104-2.685-15.092-7.532-15.092-7.532s-11.277-5.437-18.86-2.056
	s4.916,11.495,4.916,11.495s-10.977,4.378-13.464,3.265c-2.487-1.113,3.189-4.573,3.189-4.573s-5.707-8.171-6.518-11.63
	c-0.809-3.461,3.333-3.543,6.841-2.359c3.509,1.184,9.247-0.7,9.247-0.7s-8.047-5.346-13.213-6.303
	c-5.164-0.958-6.176,2.849-11.91,5.703c-5.735,2.853-10.959,0.321-18.854,0.853c-7.894,0.531-14.896-6.864-16.005-8.328
	c-1.106-1.464-19.556-4.304-24.645-7.744c-5.088-3.44-13.805-11.215-20.997-17.34c-7.193-6.125-13.247-9.029-18.604-9.686
	c-5.15-0.63-4.101,3.954-18.555-4.879c-1-1.468-2.49-3.007-5.719-4.93c-5.235-3.12-3.873-3.025-8.259-5.247
	c-4.387-2.223-10.203-2.762-10.65-5.027c-0.447-2.266,0.138-3.553-4.281-4.241s-7.14,0.417-9.866-1.063
	c-2.728-1.479,0.268-3.583-4.188-4.029c-4.456-0.446-8.538,0.565-11.927-0.437c-3.389-1-7.956-2.013-6.331,0.264
	c1.186,1.662,2.997,2.641,2.428,3.098c-0.27,0.075-0.54,0.153-0.809,0.235c-0.255,0.031-0.565,0.054-0.948,0.066
	c-3.754,0.126-5.517,1.402-7.396,0.819c-1.879-0.583-2.839-2.045-2.839-2.045s-4.775,4.316-5.324,5.361
	c-0.55,1.044,1.184,2.596-1.909,2.243c-3.093-0.352-5.926,0.188-6.518-1.111c-0.593-1.298-3.66-5.769-4.426-3.272
	c-0.767,2.496,7.926,4.84,3.846,7.143c-4.08,2.304-5.485-0.132-6.433,3.574c-0.948,3.707-3.378,2.876,0.233,5.009
	c3.613,2.134,1.301,4.455,6.939,7.497c5.64,3.041,5.643,4.333,6.897,5.153c1.253,0.819,7.07,1.358,3.428,2.052
	c-3.643,0.692-3.234,1.908-14.391,0.268c-11.157-1.64-31.415-6.838-30.862-6.591c0.553,0.247,31.53,8.696,36.132,9.467
	c4.604,0.77,7.361-0.577,14.1,0.376c6.738,0.951,14.575-0.187,12.186,1.326c-2.388,1.512-5.48,1.16-7.504,1.544
	c-2.024,0.385-7.946,1.863-3.824,1.903c4.123,0.039,6.923,1.035,10.489-0.466c3.567-1.501,0.541-4.922,8.792-2.26
	c8.252,2.663,9.112,1.331,12.284,3.783c3.172,2.453,1.886,3.168,6.124,5.065c4.237,1.897-6.948,2.671-7.343,6.625
	c-0.108,1.082,0.028,2.408,0.244,3.768c-0.25,2.225-0.344,4.09,0.367,4.961c0.213,0.261,0.419,0.54,0.62,0.832
	c0.086,1.059-0.032,1.765-0.576,1.833c-1.804,0.225-4.761-4.972-5.192-0.776c-0.432,4.196-1.494,6.043,1.119,5.664
	c2.612-0.379,4.961-2.941,6.591,0.628c0.101,0.223,0.214,0.451,0.337,0.685c-0.03,0.536-0.092,1.083-0.194,1.639
	c-0.25,1.354,0.225,3.047,0.884,4.882c-4.836-1.519-4.813-4.207-4.842-1.427c-0.029,2.827,1.408,3.729,2.04,6.077
	c0.632,2.349,4.067,6.984,4.215,7.309c-0.017,0.025-0.04,0.051-0.058,0.076c-0.405,0.143-2.837-0.256-4.249-0.197
	c-1.582,0.066-4.224,3.271-9.772,7.5c-5.547,4.229-6.136,4.223-8.817,6.378c-2.682,2.156-11.755,8.935-12.884,13.851
	c-1.128,4.917-3.6,3.036-1.378,7.903c2.221,4.867,1.371,3.97,2.665,5.839c0.173,0.25,0.283,0.512,0.342,0.783
	c-1.111,2.158-2.99,4.552-3.479,6.719c-2.394,3.188-6.037,3.88-4.779,5.992c0.299,0.503,0.583,0.881,0.798,1.192
	c-0.519,0.839-1.021,1.698-1.458,2.563c-0.104,0.063-0.21,0.126-0.324,0.193c-3.196,1.886-2.587,1.443-1.144,4.563
	c-0.019,0.335-0.014,0.668,0.017,1c0.145,1.541-0.161,3.25-0.632,4.917c-3.901,1.435-2.838,1.947-2.327,3.697
	c0.149,0.513,0.371,0.879,0.632,1.1c-0.777,2.021-1.277,3.441-0.539,3.523c1.74,0.198,3.964-4.807,6.686-9.202
	c2.722-4.397,6.226-15.996,8.548-14.761c2.322,1.233-2.317,11.547-5.441,20.604c-3.124,9.057-6.317,12.659-7.435,18.163
	c-1.118,5.5,11.339,18.824,16.533,20.569c5.194,1.744-0.212,3.39,4.636,10.401c4.85,7.011,3.564,11.663,1.284,16.063
	c-2.28,4.402,1.851,11.286,8.559,10.804c6.707-0.481,4.697,2.102-0.312,7.992c-5.01,5.889-13.841,6.775-22.505,8.51
	c-8.664,1.735-18.777,9.212-23.406,12.561c-4.629,3.348-1.838,4.403-6.049,9.875c-4.209,5.473-12.738,17.144-11.23,23.822
	c1.508,6.677,3.067,12.022-3.792,17.468c-6.86,5.449-34.651,19.726-38.893,23.441c-4.241,3.716-12.401,8-20.43,10.406
	c-8.027,2.409-7.446,2.477-14.5,8.225c-7.053,5.749-16.595,9.413-32.476,17.018c-15.882,7.604-12.29,20.056-6.784,24.649
	c5.505,4.594,13.262,4.003,13.262,4.003c-4.702-3.073,0.029-10.055,4.437-13.89c4.407-3.838,13.826-1.75,17.935-3.589
	c4.108-1.839-1.972-4.562,0.95-6.352s7.951,0.075,9.77-1.239c1.819-1.316,6.152-1.701,10.182-2.024
	c4.03-0.324-0.091-3.332,1.728-4.646c1.818-1.316,2.401-0.281,5.692,2.354c3.292,2.636,8.448-0.283,12.916-1.574
	c4.469-1.289,11.929,1.083,17.007,0.646c5.078-0.437,15.064-3.131,22.021-3.308s12.523-3.879,23.835-6.559
	c11.312-2.682,9.098-4.641,18.31-8.064c9.212-3.428,22.333-0.457,27.966,0.323c5.634,0.778,13.078-3.632,17.516-5.71
	c4.44-2.079,7.563-0.293,7.339-1.748c-0.225-1.456,4.928-5.347,10.383-9.293c5.456-3.946,14.373-4.406,24.14-6.616
	c9.767-2.209,11.606-5.645,14.083-9.378C369.631,391.973,365.853,393.572,365.539,389.754z"/>
</svg>
