<svg id="Ñëîé_1" data-name="Ñëîé 1" xmlns="http://www.w3.org/2000/svg" xmlns:xlink="http://www.w3.org/1999/xlink" viewBox="0 0 2000 2000"><defs><style>.cls-1,.cls-104,.cls-2{fill:#010c14;}.cls-1{opacity:0.39;}.cls-2{opacity:0.3;}.cls-3{fill:#ff65a7;}.cls-4{fill:url(#Áåçûìÿííûé_ãðàäèåíò_86);}.cls-5{fill:url(#Áåçûìÿííûé_ãðàäèåíò_84);}.cls-6{fill:url(#Áåçûìÿííûé_ãðàäèåíò_85);}.cls-7{fill:#629df4;}.cls-8{fill:url(#Áåçûìÿííûé_ãðàäèåíò_23);}.cls-9{fill:#fff;}.cls-10{fill:url(#Áåçûìÿííûé_ãðàäèåíò_121);}.cls-11{fill:#4f5cd9;}.cls-12{fill:#4f65da;}.cls-13{fill:#4f54d9;}.cls-14{fill:#4f5fda;}.cls-15{fill:url(#Áåçûìÿííûé_ãðàäèåíò_98);}.cls-16{fill:url(#Áåçûìÿííûé_ãðàäèåíò_3);}.cls-17{fill:#1a0344;opacity:0.29;}.cls-18{fill:url(#Áåçûìÿííûé_ãðàäèåíò_23-2);}.cls-19{fill:url(#Áåçûìÿííûé_ãðàäèåíò_17);}.cls-20{fill:url(#Áåçûìÿííûé_ãðàäèåíò_218);}.cls-21{fill:url(#Áåçûìÿííûé_ãðàäèåíò_190);}.cls-22{fill:url(#Áåçûìÿííûé_ãðàäèåíò_111);}.cls-23{fill:#a692f4;}.cls-24{fill:url(#Áåçûìÿííûé_ãðàäèåíò_23-3);}.cls-25{fill:#85acf9;}.cls-26{fill:url(#Áåçûìÿííûé_ãðàäèåíò_190-2);}.cls-27{fill:url(#Áåçûìÿííûé_ãðàäèåíò_23-4);}.cls-28{fill:url(#Áåçûìÿííûé_ãðàäèåíò_23-5);}.cls-29{fill:url(#Áåçûìÿííûé_ãðàäèåíò_23-6);}.cls-30{fill:#efefef;}.cls-31{fill:#7c8da0;}.cls-32{fill:#8641f2;}.cls-33{fill:#43caef;}.cls-34{fill:#cc193f;}.cls-35{fill:url(#Áåçûìÿííûé_ãðàäèåíò_44);}.cls-36{fill:url(#Áåçûìÿííûé_ãðàäèåíò_190-3);}.cls-37{fill:url(#Áåçûìÿííûé_ãðàäèåíò_190-4);}.cls-38{fill:url(#Áåçûìÿííûé_ãðàäèåíò_147);}.cls-39{fill:url(#Áåçûìÿííûé_ãðàäèåíò_23-7);}.cls-40{fill:url(#Áåçûìÿííûé_ãðàäèåíò_216);}.cls-41{fill:url(#Áåçûìÿííûé_ãðàäèåíò_78);}.cls-42{fill:#41519e;}.cls-123,.cls-42{opacity:0.25;}.cls-43{fill:url(#Áåçûìÿííûé_ãðàäèåíò_23-8);}.cls-44{fill:url(#Áåçûìÿííûé_ãðàäèåíò_190-5);}.cls-45{fill:url(#Áåçûìÿííûé_ãðàäèåíò_121-2);}.cls-46{fill:url(#Áåçûìÿííûé_ãðàäèåíò_121-3);}.cls-47{fill:url(#Áåçûìÿííûé_ãðàäèåíò_121-4);}.cls-48{fill:url(#Áåçûìÿííûé_ãðàäèåíò_121-5);}.cls-49{fill:url(#Áåçûìÿííûé_ãðàäèåíò_121-6);}.cls-50{fill:url(#Áåçûìÿííûé_ãðàäèåíò_121-7);}.cls-51{fill:url(#Áåçûìÿííûé_ãðàäèåíò_121-8);}.cls-52{fill:url(#Áåçûìÿííûé_ãðàäèåíò_121-9);}.cls-53{fill:url(#Áåçûìÿííûé_ãðàäèåíò_121-10);}.cls-54{fill:url(#Áåçûìÿííûé_ãðàäèåíò_121-11);}.cls-55{fill:url(#Áåçûìÿííûé_ãðàäèåíò_121-12);}.cls-56{fill:url(#Áåçûìÿííûé_ãðàäèåíò_121-13);}.cls-57{fill:url(#Áåçûìÿííûé_ãðàäèåíò_121-14);}.cls-58{fill:url(#Áåçûìÿííûé_ãðàäèåíò_121-15);}.cls-59{fill:url(#Áåçûìÿííûé_ãðàäèåíò_121-16);}.cls-60{fill:url(#Áåçûìÿííûé_ãðàäèåíò_23-9);}.cls-61{fill:url(#Áåçûìÿííûé_ãðàäèåíò_9);}.cls-62{fill:#ffe67d;}.cls-63{fill:url(#Áåçûìÿííûé_ãðàäèåíò_9-2);}.cls-64{fill:url(#Áåçûìÿííûé_ãðàäèåíò_9-3);}.cls-65{fill:url(#Áåçûìÿííûé_ãðàäèåíò_9-5);}.cls-66{fill:url(#Áåçûìÿííûé_ãðàäèåíò_9-6);}.cls-67{fill:url(#Áåçûìÿííûé_ãðàäèåíò_9-7);}.cls-68{fill:url(#Áåçûìÿííûé_ãðàäèåíò_9-8);}.cls-69{fill:url(#Áåçûìÿííûé_ãðàäèåíò_9-9);}.cls-70{fill:url(#Áåçûìÿííûé_ãðàäèåíò_9-10);}.cls-71{fill:#eaa428;}.cls-72{fill:url(#Áåçûìÿííûé_ãðàäèåíò_2);}.cls-73{fill:url(#Áåçûìÿííûé_ãðàäèåíò_9-11);}.cls-74{fill:#fff59c;}.cls-75{fill:url(#Áåçûìÿííûé_ãðàäèåíò_2-2);}.cls-76{fill:url(#Áåçûìÿííûé_ãðàäèåíò_9-12);}.cls-77{fill:url(#Áåçûìÿííûé_ãðàäèåíò_9-13);}.cls-78{fill:url(#Áåçûìÿííûé_ãðàäèåíò_9-14);}.cls-79{fill:url(#Áåçûìÿííûé_ãðàäèåíò_9-15);}.cls-80{fill:url(#Áåçûìÿííûé_ãðàäèåíò_9-16);}.cls-81{fill:url(#Áåçûìÿííûé_ãðàäèåíò_2-3);}.cls-82{fill:url(#Áåçûìÿííûé_ãðàäèåíò_9-17);}.cls-83{fill:url(#Áåçûìÿííûé_ãðàäèåíò_2-4);}.cls-84{fill:url(#Áåçûìÿííûé_ãðàäèåíò_9-18);}.cls-85{fill:url(#Áåçûìÿííûé_ãðàäèåíò_9-19);}.cls-86{fill:url(#Áåçûìÿííûé_ãðàäèåíò_9-20);}.cls-87{fill:url(#Áåçûìÿííûé_ãðàäèåíò_9-21);}.cls-88{fill:url(#Áåçûìÿííûé_ãðàäèåíò_9-22);}.cls-89{fill:url(#Áåçûìÿííûé_ãðàäèåíò_9-23);}.cls-90{fill:url(#Áåçûìÿííûé_ãðàäèåíò_2-5);}.cls-91{fill:url(#Áåçûìÿííûé_ãðàäèåíò_9-24);}.cls-92{fill:url(#Áåçûìÿííûé_ãðàäèåíò_2-6);}.cls-93{fill:url(#Áåçûìÿííûé_ãðàäèåíò_23-10);}.cls-94{fill:url(#Áåçûìÿííûé_ãðàäèåíò_121-17);}.cls-95{fill:url(#Áåçûìÿííûé_ãðàäèåíò_23-11);}.cls-96{fill:url(#Áåçûìÿííûé_ãðàäèåíò_23-12);}.cls-97{fill:url(#Áåçûìÿííûé_ãðàäèåíò_23-13);}.cls-98{fill:url(#Áåçûìÿííûé_ãðàäèåíò_17-2);}.cls-99{fill:url(#Áåçûìÿííûé_ãðàäèåíò_23-14);}.cls-100{fill:url(#Áåçûìÿííûé_ãðàäèåíò_23-15);}.cls-101{fill:url(#Áåçûìÿííûé_ãðàäèåíò_23-16);}.cls-102{fill:url(#Áåçûìÿííûé_ãðàäèåíò_23-17);}.cls-103{fill:url(#Áåçûìÿííûé_ãðàäèåíò_23-18);}.cls-104{opacity:0.36;}.cls-105{fill:url(#Áåçûìÿííûé_ãðàäèåíò_2-7);}.cls-106{fill:url(#Áåçûìÿííûé_ãðàäèåíò_8);}.cls-107{fill:url(#Áåçûìÿííûé_ãðàäèåíò_218-2);}.cls-108{fill:url(#Áåçûìÿííûé_ãðàäèåíò_4);}.cls-109{fill:#24c5fe;}.cls-110{fill:url(#Áåçûìÿííûé_ãðàäèåíò_121-18);}.cls-111{fill:url(#Áåçûìÿííûé_ãðàäèåíò_121-19);}.cls-112{fill:#e5257c;}.cls-113{fill:#c90a66;}.cls-114{fill:#f93a88;}.cls-115{fill:url(#Áåçûìÿííûé_ãðàäèåíò_216-2);}.cls-116{fill:url(#Áåçûìÿííûé_ãðàäèåíò_49);}.cls-117{fill:url(#Áåçûìÿííûé_ãðàäèåíò_48);}.cls-118{fill:#031051;opacity:0.32;}.cls-119{fill:url(#Áåçûìÿííûé_ãðàäèåíò_47);}.cls-120{fill:url(#Áåçûìÿííûé_ãðàäèåíò_47-2);}.cls-121{fill:url(#Áåçûìÿííûé_ãðàäèåíò_216-3);}.cls-122{fill:url(#Áåçûìÿííûé_ãðàäèåíò_216-4);}.cls-123{fill:#101d9b;}.cls-124{fill:url(#Áåçûìÿííûé_ãðàäèåíò_218-3);}.cls-125{fill:url(#Áåçûìÿííûé_ãðàäèåíò_71);}.cls-126{fill:url(#Áåçûìÿííûé_ãðàäèåíò_218-4);}.cls-127{fill:url(#Áåçûìÿííûé_ãðàäèåíò_71-2);}.cls-128{fill:url(#Áåçûìÿííûé_ãðàäèåíò_218-5);}.cls-129{fill:url(#Áåçûìÿííûé_ãðàäèåíò_8-2);}.cls-130{fill:url(#Áåçûìÿííûé_ãðàäèåíò_8-3);}.cls-131{fill:url(#Áåçûìÿííûé_ãðàäèåíò_8-4);}.cls-132{fill:url(#Áåçûìÿííûé_ãðàäèåíò_190-6);}</style><linearGradient id="Áåçûìÿííûé_ãðàäèåíò_86" x1="374.08" y1="1278.73" x2="899.04" y2="1278.73" gradientUnits="userSpaceOnUse"><stop offset="0" stop-color="#4f3dd6"/><stop offset="1" stop-color="#4fa6f7"/></linearGradient><linearGradient id="Áåçûìÿííûé_ãðàäèåíò_84" x1="1071.51" y1="881.17" x2="1070.67" y2="1592" gradientUnits="userSpaceOnUse"><stop offset="0" stop-color="#0f7bb5"/><stop offset="0.16" stop-color="#0f76b1"/><stop offset="0.35" stop-color="#0d68a4"/><stop offset="0.55" stop-color="#0b508f"/><stop offset="0.76" stop-color="#082e72"/><stop offset="0.98" stop-color="#03044d"/><stop offset="1" stop-color="#03004a"/></linearGradient><linearGradient id="Áåçûìÿííûé_ãðàäèåíò_85" x1="378.51" y1="581.51" x2="1311.95" y2="1105.49" gradientUnits="userSpaceOnUse"><stop offset="0" stop-color="#03004a"/><stop offset="0.02" stop-color="#03044d"/><stop offset="0.24" stop-color="#082e72"/><stop offset="0.45" stop-color="#0b508f"/><stop offset="0.65" stop-color="#0d68a4"/><stop offset="0.84" stop-color="#0f76b1"/><stop offset="1" stop-color="#0f7bb5"/></linearGradient><linearGradient id="Áåçûìÿííûé_ãðàäèåíò_23" x1="374.08" y1="1262.45" x2="1260.54" y2="1262.45" gradientUnits="userSpaceOnUse"><stop offset="0" stop-color="#eff"/><stop offset="1" stop-color="#c6dcf4"/></linearGradient><linearGradient id="Áåçûìÿííûé_ãðàäèåíò_121" x1="557.58" y1="1220.52" x2="1209.92" y2="1220.52" gradientUnits="userSpaceOnUse"><stop offset="0" stop-color="#4f3dd6"/><stop offset="1" stop-color="#4fabe2"/></linearGradient><linearGradient id="Áåçûìÿííûé_ãðàäèåíò_98" x1="735.73" y1="946.93" x2="1260.54" y2="946.93" gradientUnits="userSpaceOnUse"><stop offset="0" stop-color="#00022a"/><stop offset="1" stop-color="#00036a"/></linearGradient><linearGradient id="Áåçûìÿííûé_ãðàäèåíò_3" x1="767.14" y1="621.84" x2="1236.99" y2="1272.46" gradientUnits="userSpaceOnUse"><stop offset="0" stop-color="#3be0fd"/><stop offset="1" stop-color="#e84278"/></linearGradient><linearGradient id="Áåçûìÿííûé_ãðàäèåíò_23-2" x1="652.75" y1="380.9" x2="1120.14" y2="1028.13" xlink:href="#Áåçûìÿííûé_ãðàäèåíò_23"/><linearGradient id="Áåçûìÿííûé_ãðàäèåíò_17" x1="829.34" y1="425.43" x2="897.34" y2="425.43" gradientUnits="userSpaceOnUse"><stop offset="0" stop-color="#4f3dd6"/><stop offset="1" stop-color="#5927cf"/></linearGradient><linearGradient id="Áåçûìÿííûé_ãðàäèåíò_218" x1="879.5" y1="414.02" x2="1044.35" y2="706.58" gradientUnits="userSpaceOnUse"><stop offset="0" stop-color="#42d19a"/><stop offset="0.28" stop-color="#41ae9f"/><stop offset="1" stop-color="#3e52ab"/></linearGradient><linearGradient id="Áåçûìÿííûé_ãðàäèåíò_190" x1="964.71" y1="562.93" x2="1032.71" y2="562.93" gradientUnits="userSpaceOnUse"><stop offset="0" stop-color="#d1426b"/><stop offset="1" stop-color="#bf00a5"/></linearGradient><linearGradient id="Áåçûìÿííûé_ãðàäèåíò_111" x1="561.47" y1="1320.79" x2="861.53" y2="1320.79" gradientUnits="userSpaceOnUse"><stop offset="0" stop-color="#9cc4dc"/><stop offset="0.13" stop-color="#a8c6e4"/><stop offset="0.45" stop-color="#c0caf3"/><stop offset="0.75" stop-color="#cecdfc"/><stop offset="1" stop-color="#d3ceff"/></linearGradient><linearGradient id="Áåçûìÿííûé_ãðàäèåíò_23-3" x1="1079.1" y1="1488.45" x2="1246.79" y2="1488.45" xlink:href="#Áåçûìÿííûé_ãðàäèåíò_23"/><linearGradient id="Áåçûìÿííûé_ãðàäèåíò_190-2" x1="806.67" y1="621.15" x2="1508.9" y2="1000.92" xlink:href="#Áåçûìÿííûé_ãðàäèåíò_190"/><linearGradient id="Áåçûìÿííûé_ãðàäèåíò_23-4" x1="808.29" y1="622.58" x2="820.81" y2="622.58" xlink:href="#Áåçûìÿííûé_ãðàäèåíò_23"/><linearGradient id="Áåçûìÿííûé_ãðàäèåíò_23-5" x1="828.07" y1="632.64" x2="840.59" y2="632.64" xlink:href="#Áåçûìÿííûé_ãðàäèåíò_23"/><linearGradient id="Áåçûìÿííûé_ãðàäèåíò_23-6" x1="848.59" y1="644.17" x2="861.11" y2="644.17" xlink:href="#Áåçûìÿííûé_ãðàäèåíò_23"/><linearGradient id="Áåçûìÿííûé_ãðàäèåíò_44" x1="804.9" y1="928.98" x2="1192.01" y2="928.98" gradientUnits="userSpaceOnUse"><stop offset="0" stop-color="#4fabe2"/><stop offset="1" stop-color="#4f3dd6"/></linearGradient><linearGradient id="Áåçûìÿííûé_ãðàäèåíò_190-3" x1="992.1" y1="840.69" x2="1008.44" y2="840.69" xlink:href="#Áåçûìÿííûé_ãðàäèåíò_190"/><linearGradient id="Áåçûìÿííûé_ãðàäèåíò_190-4" x1="1067.66" y1="960.41" x2="1084" y2="960.41" xlink:href="#Áåçûìÿííûé_ãðàäèåíò_190"/><linearGradient id="Áåçûìÿííûé_ãðàäèåíò_147" x1="1349.71" y1="1692.7" x2="1585.67" y2="1692.7" gradientUnits="userSpaceOnUse"><stop offset="0" stop-color="#4fa6f7"/><stop offset="1" stop-color="#4f3dd6"/></linearGradient><linearGradient id="Áåçûìÿííûé_ãðàäèåíò_23-7" x1="1349.38" y1="1682.59" x2="1586.06" y2="1684.77" xlink:href="#Áåçûìÿííûé_ãðàäèåíò_23"/><linearGradient id="Áåçûìÿííûé_ãðàäèåíò_216" x1="1472.78" y1="1630.43" x2="1566.35" y2="1684.13" gradientUnits="userSpaceOnUse"><stop offset="0" stop-color="#4fe0d6"/><stop offset="1" stop-color="#4fabe2"/></linearGradient><linearGradient id="Áåçûìÿííûé_ãðàäèåíò_78" x1="1449.62" y1="1617.74" x2="1586.02" y2="1694.15" gradientUnits="userSpaceOnUse"><stop offset="0" stop-color="#42d19a"/><stop offset="1" stop-color="#3e52ab"/></linearGradient><linearGradient id="Áåçûìÿííûé_ãðàäèåíò_23-8" x1="1445.14" y1="1692.25" x2="1491.08" y2="1692.25" xlink:href="#Áåçûìÿííûé_ãðàäèåíò_23"/><linearGradient id="Áåçûìÿííûé_ãðàäèåíò_190-5" x1="1488.55" y1="1693.52" x2="1532.8" y2="1693.52" xlink:href="#Áåçûìÿííûé_ãðàäèåíò_190"/><linearGradient id="Áåçûìÿííûé_ãðàäèåíò_121-2" x1="1370.3" y1="1661.71" x2="1660.17" y2="1646.61" xlink:href="#Áåçûìÿííûé_ãðàäèåíò_121"/><linearGradient id="Áåçûìÿííûé_ãðàäèåíò_121-3" x1="1372" y1="1694.47" x2="1661.87" y2="1679.37" xlink:href="#Áåçûìÿííûé_ãðàäèåíò_121"/><linearGradient id="Áåçûìÿííûé_ãðàäèåíò_121-4" x1="1372.17" y1="1697.69" x2="1662.04" y2="1682.59" xlink:href="#Áåçûìÿííûé_ãðàäèåíò_121"/><linearGradient id="Áåçûìÿííûé_ãðàäèåíò_121-5" x1="1371.63" y1="1687.26" x2="1661.5" y2="1672.16" xlink:href="#Áåçûìÿííûé_ãðàäèåíò_121"/><linearGradient id="Áåçûìÿííûé_ãðàäèåíò_121-6" x1="1372.74" y1="1708.58" x2="1662.61" y2="1693.49" xlink:href="#Áåçûìÿííûé_ãðàäèåíò_121"/><linearGradient id="Áåçûìÿííûé_ãðàäèåíò_121-7" x1="1370.97" y1="1674.7" x2="1660.85" y2="1659.6" xlink:href="#Áåçûìÿííûé_ãðàäèåíò_121"/><linearGradient id="Áåçûìÿííûé_ãðàäèåíò_121-8" x1="1372.09" y1="1696.03" x2="1661.95" y2="1680.93" xlink:href="#Áåçûìÿííûé_ãðàäèåíò_121"/><linearGradient id="Áåçûìÿííûé_ãðàäèåíò_121-9" x1="1371.52" y1="1685.14" x2="1661.39" y2="1670.04" xlink:href="#Áåçûìÿííûé_ãðàäèåíò_121"/><linearGradient id="Áåçûìÿííûé_ãðàäèåíò_121-10" x1="1371.41" y1="1683.07" x2="1661.28" y2="1667.97" xlink:href="#Áåçûìÿííûé_ãðàäèåíò_121"/><linearGradient id="Áåçûìÿííûé_ãðàäèåíò_121-11" x1="1372.9" y1="1711.62" x2="1662.77" y2="1696.52" xlink:href="#Áåçûìÿííûé_ãðàäèåíò_121"/><linearGradient id="Áåçûìÿííûé_ãðàäèåíò_121-12" x1="1373.47" y1="1722.53" x2="1663.34" y2="1707.43" xlink:href="#Áåçûìÿííûé_ãðàäèåíò_121"/><linearGradient id="Áåçûìÿííûé_ãðàäèåíò_121-13" x1="1374.07" y1="1734.1" x2="1663.94" y2="1719" xlink:href="#Áåçûìÿííûé_ãðàäèåíò_121"/><linearGradient id="Áåçûìÿííûé_ãðàäèåíò_121-14" x1="1373.34" y1="1720.07" x2="1663.21" y2="1704.98" xlink:href="#Áåçûìÿííûé_ãðàäèåíò_121"/><linearGradient id="Áåçûìÿííûé_ãðàäèåíò_121-15" x1="1370.84" y1="1672.16" x2="1660.71" y2="1657.06" xlink:href="#Áåçûìÿííûé_ãðàäèåíò_121"/><linearGradient id="Áåçûìÿííûé_ãðàäèåíò_121-16" x1="1372.64" y1="1706.64" x2="1662.51" y2="1691.54" xlink:href="#Áåçûìÿííûé_ãðàäèåíò_121"/><linearGradient id="Áåçûìÿííûé_ãðàäèåíò_23-9" x1="1362.4" y1="1694.88" x2="1535.32" y2="1694.88" xlink:href="#Áåçûìÿííûé_ãðàäèåíò_23"/><linearGradient id="Áåçûìÿííûé_ãðàäèåíò_9" x1="1395.35" y1="1485" x2="1515.62" y2="1485" gradientUnits="userSpaceOnUse"><stop offset="0" stop-color="#ffe858"/><stop offset="1" stop-color="#ffb806"/></linearGradient><linearGradient id="Áåçûìÿííûé_ãðàäèåíò_9-2" x1="1395.35" y1="1465.77" x2="1515.62" y2="1465.77" xlink:href="#Áåçûìÿííûé_ãðàäèåíò_9"/><linearGradient id="Áåçûìÿííûé_ãðàäèåíò_9-3" x1="1395.35" y1="1446.54" x2="1515.62" y2="1446.54" xlink:href="#Áåçûìÿííûé_ãðàäèåíò_9"/><linearGradient id="Áåçûìÿííûé_ãðàäèåíò_9-5" x1="1395.35" y1="1427.3" x2="1515.62" y2="1427.3" xlink:href="#Áåçûìÿííûé_ãðàäèåíò_9"/><linearGradient id="Áåçûìÿííûé_ãðàäèåíò_9-6" x1="1395.35" y1="1408.07" x2="1515.62" y2="1408.07" xlink:href="#Áåçûìÿííûé_ãðàäèåíò_9"/><linearGradient id="Áåçûìÿííûé_ãðàäèåíò_9-7" x1="1395.35" y1="1390.12" x2="1515.62" y2="1390.12" xlink:href="#Áåçûìÿííûé_ãðàäèåíò_9"/><linearGradient id="Áåçûìÿííûé_ãðàäèåíò_9-8" x1="1395.35" y1="1372.16" x2="1515.62" y2="1372.16" xlink:href="#Áåçûìÿííûé_ãðàäèåíò_9"/><linearGradient id="Áåçûìÿííûé_ãðàäèåíò_9-9" x1="1395.35" y1="1354.21" x2="1515.62" y2="1354.21" xlink:href="#Áåçûìÿííûé_ãðàäèåíò_9"/><linearGradient id="Áåçûìÿííûé_ãðàäèåíò_9-10" x1="1395.48" y1="1336.26" x2="1515.74" y2="1336.26" xlink:href="#Áåçûìÿííûé_ãðàäèåíò_9"/><linearGradient id="Áåçûìÿííûé_ãðàäèåíò_2" x1="1398.36" y1="1325.15" x2="1528.99" y2="1325.15" gradientUnits="userSpaceOnUse"><stop offset="0" stop-color="#ffb806"/><stop offset="1" stop-color="#f3a63a"/></linearGradient><linearGradient id="Áåçûìÿííûé_ãðàäèåíò_9-11" x1="1395.68" y1="1318.87" x2="1515.52" y2="1318.87" xlink:href="#Áåçûìÿííûé_ãðàäèåíò_9"/><linearGradient id="Áåçûìÿííûé_ãðàäèåíò_2-2" x1="1396.67" y1="1307.76" x2="1527.3" y2="1307.76" xlink:href="#Áåçûìÿííûé_ãðàäèåíò_2"/><linearGradient id="Áåçûìÿííûé_ãðàäèåíò_9-12" x1="1455.55" y1="1519.43" x2="1575.81" y2="1519.43" xlink:href="#Áåçûìÿííûé_ãðàäèåíò_9"/><linearGradient id="Áåçûìÿííûé_ãðàäèåíò_9-13" x1="1455.55" y1="1501.48" x2="1575.81" y2="1501.48" xlink:href="#Áåçûìÿííûé_ãðàäèåíò_9"/><linearGradient id="Áåçûìÿííûé_ãðàäèåíò_9-14" x1="1455.55" y1="1483.53" x2="1575.81" y2="1483.53" xlink:href="#Áåçûìÿííûé_ãðàäèåíò_9"/><linearGradient id="Áåçûìÿííûé_ãðàäèåíò_9-15" x1="1455.55" y1="1465.58" x2="1575.81" y2="1465.58" xlink:href="#Áåçûìÿííûé_ãðàäèåíò_9"/><linearGradient id="Áåçûìÿííûé_ãðàäèåíò_9-16" x1="1455.67" y1="1447.63" x2="1575.93" y2="1447.63" xlink:href="#Áåçûìÿííûé_ãðàäèåíò_9"/><linearGradient id="Áåçûìÿííûé_ãðàäèåíò_2-3" x1="1458.55" y1="1436.52" x2="1589.18" y2="1436.52" xlink:href="#Áåçûìÿííûé_ãðàäèåíò_2"/><linearGradient id="Áåçûìÿííûé_ãðàäèåíò_9-17" x1="1455.87" y1="1430.23" x2="1575.72" y2="1430.23" xlink:href="#Áåçûìÿííûé_ãðàäèåíò_9"/><linearGradient id="Áåçûìÿííûé_ãðàäèåíò_2-4" x1="1456.86" y1="1419.12" x2="1587.5" y2="1419.12" xlink:href="#Áåçûìÿííûé_ãðàäèåíò_2"/><linearGradient id="Áåçûìÿííûé_ãðàäèåíò_9-18" x1="1291.86" y1="1561.75" x2="1412.13" y2="1561.75" xlink:href="#Áåçûìÿííûé_ãðàäèåíò_9"/><linearGradient id="Áåçûìÿííûé_ãðàäèåíò_9-19" x1="1291.86" y1="1542.52" x2="1412.13" y2="1542.52" xlink:href="#Áåçûìÿííûé_ãðàäèåíò_9"/><linearGradient id="Áåçûìÿííûé_ãðàäèåíò_9-20" x1="1291.86" y1="1524.56" x2="1412.13" y2="1524.56" xlink:href="#Áåçûìÿííûé_ãðàäèåíò_9"/><linearGradient id="Áåçûìÿííûé_ãðàäèåíò_9-21" x1="1291.86" y1="1506.61" x2="1412.13" y2="1506.61" xlink:href="#Áåçûìÿííûé_ãðàäèåíò_9"/><linearGradient id="Áåçûìÿííûé_ãðàäèåíò_9-22" x1="1291.86" y1="1488.66" x2="1412.13" y2="1488.66" xlink:href="#Áåçûìÿííûé_ãðàäèåíò_9"/><linearGradient id="Áåçûìÿííûé_ãðàäèåíò_9-23" x1="1291.99" y1="1470.71" x2="1412.25" y2="1470.71" xlink:href="#Áåçûìÿííûé_ãðàäèåíò_9"/><linearGradient id="Áåçûìÿííûé_ãðàäèåíò_2-5" x1="1294.87" y1="1459.6" x2="1425.5" y2="1459.6" xlink:href="#Áåçûìÿííûé_ãðàäèåíò_2"/><linearGradient id="Áåçûìÿííûé_ãðàäèåíò_9-24" x1="1292.19" y1="1453.32" x2="1412.04" y2="1453.32" xlink:href="#Áåçûìÿííûé_ãðàäèåíò_9"/><linearGradient id="Áåçûìÿííûé_ãðàäèåíò_2-6" x1="1293.18" y1="1442.2" x2="1423.82" y2="1442.2" xlink:href="#Áåçûìÿííûé_ãðàäèåíò_2"/><linearGradient id="Áåçûìÿííûé_ãðàäèåíò_23-10" x1="1005.16" y1="847.62" x2="1279.25" y2="1227.16" xlink:href="#Áåçûìÿííûé_ãðàäèåíò_23"/><linearGradient id="Áåçûìÿííûé_ãðàäèåíò_121-17" x1="1111.03" y1="993.17" x2="1418.22" y2="1170.85" xlink:href="#Áåçûìÿííûé_ãðàäèåíò_121"/><linearGradient id="Áåçûìÿííûé_ãðàäèåíò_23-11" x1="1096.38" y1="989.34" x2="1103.72" y2="989.34" xlink:href="#Áåçûìÿííûé_ãðàäèåíò_23"/><linearGradient id="Áåçûìÿííûé_ãðàäèåíò_23-12" x1="1107.97" y1="995.24" x2="1115.31" y2="995.24" xlink:href="#Áåçûìÿííûé_ãðàäèåíò_23"/><linearGradient id="Áåçûìÿííûé_ãðàäèåíò_23-13" x1="1120.01" y1="1002" x2="1127.35" y2="1002" xlink:href="#Áåçûìÿííûé_ãðàäèåíò_23"/><linearGradient id="Áåçûìÿííûé_ãðàäèåíò_17-2" x1="1113.76" y1="1135.45" x2="1290.17" y2="1135.45" xlink:href="#Áåçûìÿííûé_ãðàäèåíò_17"/><linearGradient id="Áåçûìÿííûé_ãðàäèåíò_23-14" x1="1141.84" y1="1107.31" x2="1157.98" y2="1107.31" xlink:href="#Áåçûìÿííûé_ãðàäèåíò_23"/><linearGradient id="Áåçûìÿííûé_ãðàäèåíò_23-15" x1="1167.33" y1="1120.29" x2="1183.47" y2="1120.29" xlink:href="#Áåçûìÿííûé_ãðàäèåíò_23"/><linearGradient id="Áåçûìÿííûé_ãðàäèåíò_23-16" x1="1193.78" y1="1135.14" x2="1209.91" y2="1135.14" xlink:href="#Áåçûìÿííûé_ãðàäèåíò_23"/><linearGradient id="Áåçûìÿííûé_ãðàäèåíò_23-17" x1="1219.5" y1="1149.47" x2="1235.64" y2="1149.47" xlink:href="#Áåçûìÿííûé_ãðàäèåíò_23"/><linearGradient id="Áåçûìÿííûé_ãðàäèåíò_23-18" x1="1245.95" y1="1164.33" x2="1262.08" y2="1164.33" xlink:href="#Áåçûìÿííûé_ãðàäèåíò_23"/><linearGradient id="Áåçûìÿííûé_ãðàäèåíò_2-7" x1="425.58" y1="750.25" x2="471.9" y2="750.25" xlink:href="#Áåçûìÿííûé_ãðàäèåíò_2"/><linearGradient id="Áåçûìÿííûé_ãðàäèåíò_8" x1="451.31" y1="715.45" x2="635.9" y2="715.45" gradientUnits="userSpaceOnUse"><stop offset="0" stop-color="#42e5d4"/><stop offset="0.44" stop-color="#41ae9f"/><stop offset="1" stop-color="#3e52ab"/></linearGradient><linearGradient id="Áåçûìÿííûé_ãðàäèåíò_218-2" x1="451.31" y1="814.84" x2="602.34" y2="814.84" xlink:href="#Áåçûìÿííûé_ãðàäèåíò_218"/><linearGradient id="Áåçûìÿííûé_ãðàäèåíò_4" x1="461.38" y1="814.38" x2="581.45" y2="814.38" gradientUnits="userSpaceOnUse"><stop offset="0" stop-color="#3e52ab"/><stop offset="0.72" stop-color="#41ae9f"/><stop offset="1" stop-color="#42d19a"/></linearGradient><linearGradient id="Áåçûìÿííûé_ãðàäèåíò_121-18" x1="416.14" y1="819.66" x2="563.92" y2="889.19" xlink:href="#Áåçûìÿííûé_ãðàäèåíò_121"/><linearGradient id="Áåçûìÿííûé_ãðàäèåíò_121-19" x1="564.99" y1="886.16" x2="653.74" y2="844.46" xlink:href="#Áåçûìÿííûé_ãðàäèåíò_121"/><linearGradient id="Áåçûìÿííûé_ãðàäèåíò_216-2" x1="17.45" y1="871.32" x2="196.07" y2="871.32" xlink:href="#Áåçûìÿííûé_ãðàäèåíò_216"/><linearGradient id="Áåçûìÿííûé_ãðàäèåíò_49" x1="294.12" y1="1120.41" x2="373.82" y2="1120.41" xlink:href="#Áåçûìÿííûé_ãðàäèåíò_44"/><linearGradient id="Áåçûìÿííûé_ãðàäèåíò_48" x1="188.34" y1="1100.02" x2="356.98" y2="1100.02" xlink:href="#Áåçûìÿííûé_ãðàäèåíò_44"/><linearGradient id="Áåçûìÿííûé_ãðàäèåíò_47" x1="30.85" y1="997.47" x2="334.53" y2="997.47" gradientUnits="userSpaceOnUse"><stop offset="0" stop-color="#4fe0d6"/><stop offset="1" stop-color="#4f83e2"/></linearGradient><linearGradient id="Áåçûìÿííûé_ãðàäèåíò_47-2" x1="17.45" y1="871.32" x2="196.07" y2="871.32" xlink:href="#Áåçûìÿííûé_ãðàäèåíò_47"/><linearGradient id="Áåçûìÿííûé_ãðàäèåíò_216-3" x1="235.15" y1="871.32" x2="417.83" y2="871.32" xlink:href="#Áåçûìÿííûé_ãðàäèåíò_216"/><linearGradient id="Áåçûìÿííûé_ãðàäèåíò_216-4" x1="245.19" y1="997.47" x2="476.63" y2="997.47" xlink:href="#Áåçûìÿííûé_ãðàäèåíò_216"/><linearGradient id="Áåçûìÿííûé_ãðàäèåíò_218-3" x1="1347.87" y1="699.7" x2="1500.21" y2="699.7" xlink:href="#Áåçûìÿííûé_ãðàäèåíò_218"/><linearGradient id="Áåçûìÿííûé_ãðàäèåíò_71" x1="1474.21" y1="726.93" x2="1760.92" y2="726.93" gradientUnits="userSpaceOnUse"><stop offset="0" stop-color="#3e52ab"/><stop offset="0.72" stop-color="#41ae9f"/></linearGradient><linearGradient id="Áåçûìÿííûé_ãðàäèåíò_218-4" x1="1322.46" y1="805.05" x2="1726.54" y2="805.05" xlink:href="#Áåçûìÿííûé_ãðàäèåíò_218"/><linearGradient id="Áåçûìÿííûé_ãðàäèåíò_71-2" x1="1458.11" y1="711.42" x2="1615.82" y2="711.42" xlink:href="#Áåçûìÿííûé_ãðàäèåíò_71"/><linearGradient id="Áåçûìÿííûé_ãðàäèåíò_218-5" x1="1411.04" y1="711.42" x2="1539.32" y2="711.42" xlink:href="#Áåçûìÿííûé_ãðàäèåíò_218"/><linearGradient id="Áåçûìÿííûé_ãðàäèåíò_8-2" x1="1349.92" y1="584.26" x2="1774.68" y2="578.22" xlink:href="#Áåçûìÿííûé_ãðàäèåíò_8"/><linearGradient id="Áåçûìÿííûé_ãðàäèåíò_8-3" x1="1350.35" y1="614.29" x2="2062.65" y2="604.17" xlink:href="#Áåçûìÿííûé_ãðàäèåíò_8"/><linearGradient id="Áåçûìÿííûé_ãðàäèåíò_8-4" x1="1411.04" y1="653.92" x2="1767.37" y2="653.92" xlink:href="#Áåçûìÿííûé_ãðàäèåíò_8"/><linearGradient id="Áåçûìÿííûé_ãðàäèåíò_190-6" x1="587.65" y1="386.29" x2="757.77" y2="386.29" xlink:href="#Áåçûìÿííûé_ãðàäèåíò_190"/></defs><title>halaman eclass icon 3d</title><ellipse class="cls-1" cx="315.59" cy="1138.65" rx="98.88" ry="42.76"/><path class="cls-2" d="M1526.52,1506.58c-5.37-18.47-41.35-32.76-85-32.76-47.33,0-85.71,16.81-85.71,37.55,0,9.17,7.51,17.57,20,24.09-1.91,0-3.82-.09-5.76-.09-47.18,0-85.43,16.41-85.43,36.64s38.25,36.64,85.43,36.64c46.38,0,84.1-15.85,85.37-35.61,15.17,6.07,35.18,9.77,57.13,9.77,47.34,0,85.71-17.18,85.71-38.37C1598.26,1525.38,1567.21,1509.57,1526.52,1506.58Z"/><path class="cls-3" d="M717.57,398.4A20.09,20.09,0,0,0,707,401.2l-.24-.32c-8-10.79-12.37-24.4-11.33-35.61l.2-2.12c3,.82.83,5.61,3.72,5.4,18.15-1.31,30.81-28.21,21.47-54.23-8.49-23.66-28.45-42-45.39-41.69-4.31.07-15.14,5.22-18.25,7.39-10.34,7.21-6.55,20.85,0,40.72a76.28,76.28,0,0,0,19.5,31l-.53,4.11c-1.26,10-6.9,16.32-15,16.9l-2.35.17c-10.39-19.55-28.09-33.08-43.1-31.3-3.38.4-14.25,5.94-16.81,7.76-9.91,7.05-5.46,19.42.31,38.38,7.94,26.14,24.13,51,42.28,49.72,14.79-1.07,28-20.7,25.35-40.35l8.77-.63c4.07-.29,8.84,2.52,12.54,7.37l8.84,11.6c-2.51,8.9-1.92,20.46,2.55,32.86,8.44,23.43,23.19,46.3,40,46.26,19.48,0,32.66-28.1,22.69-55.16C754.12,417.23,733.6,398.39,717.57,398.4Z"/><polygon class="cls-2" points="1503.05 1616.82 1650.1 1700.08 1484.24 1794.31 1339.22 1711.5 1503.05 1616.82"/><path class="cls-2" d="M1283.23,1485.66h0c2.75-5.32,2.55-11.92-3.14-20.77-2.24-3.5-10.76-9-20.39-14.29h0c-1.28-.69-2.58-1.38-3.88-2.06h0c-9.87-5.14-20.15-9.65-25.65-11.16-39.37-10.78-122.63-.45-155.11,87.48-7.48,20.27,21.81,47.34,67.38,37.42,2-.44,6.37-2.22,12.24-4.9l.26-.12,2.65-1.23,1-.46,2.69-1.28,1.3-.62,2.77-1.34,1.5-.72,2.91-1.43,1.55-.76,3.14-1.56,1.51-.75,3.36-1.68,1.48-.74,3.53-1.78,1.35-.69,3.86-2,.09,0c4.86-2.48,9.86-5,14.88-7.65l.52-.27,3.8-2,1.81-.94,3.34-1.75c.71-.36,1.41-.73,2.11-1.1l3.33-1.74,2-1.06,3.21-1.69,2.23-1.18,3-1.56,2.18-1.15,3-1.6,1.92-1,2.92-1.55,2.36-1.26,2.4-1.28,1.43-.77,5.55-3,1.59-.86,2.1-1.14,2-1.05,1.73-.94,2-1.08,1.47-.8,1.86-1,1.26-.69,1.62-.9,1.14-.63,1.28-.72,1-.54,1-.6.72-.41.85-.5.4-.24c.33-.2.58-.35.72-.45.88-.63,1.71-1.28,2.52-1.95l.35-.28c.83-.7,1.6-1.41,2.33-2.14l0,0a20.85,20.85,0,0,0,3.72-5Z"/><polygon class="cls-2" points="334.05 1229.1 942.54 1585.19 1360.63 1343.81 783.22 975.86 334.05 1229.1"/><polygon class="cls-4" points="735.73 1021 374.08 1213.52 374.08 1229.81 898.08 1536.46 899.04 1535.91 898.08 1520.17 735.73 1021 735.73 1021"/><polygon class="cls-5" points="868.72 1072.82 1260.54 1310.9 1273.57 1300.77 1273.57 873.94 1268.11 870.81 868.72 1072.82"/><polygon class="cls-6" points="750.68 574.28 735.73 582.96 748.76 994.95 868.72 1072.82 1260.54 883.71 1273.57 873.94 750.68 574.28"/><polygon class="cls-7" points="1260.54 1310.9 735.73 1021 898.08 1520.17 899.04 1535.91 1260.54 1327.19 1260.54 1310.9"/><polygon class="cls-8" points="374.08 1213.52 898.08 1520.17 1260.54 1310.9 735.73 1004.72 374.08 1213.52"/><path class="cls-9" d="M1025.69,1411.33l-.25-.14-469.86-275L739,1029.71l.26.15,472.66,274-.75.43ZM557.58,1136.22l468.11,274,184.23-106.37L739,1030.88Z"/><path class="cls-9" d="M960.2,1221.73,924.82,1201l31.24-18,35.38,20.69Zm-13.37-9,13.37,7.82,29.24-16.88-33.39-19.53L926.82,1201Z"/><polygon class="cls-10" points="1025.69 1410.17 557.58 1136.22 739.01 1030.88 1209.92 1303.81 1025.69 1410.17"/><path class="cls-9" d="M830.88,1146.09l-31.8-18.6,31.24-18,31.8,18.6Zm-16.07-10.57,16.07,9.41,29.24-16.88-29.8-17.43-29.23,16.88Z"/><path class="cls-9" d="M925.82,1201.62,892.26,1182l31.25-18,33.55,19.62Zm-11.88-8.11,11.88,7,29.23-16.88-31.55-18.46L894.27,1182l19.67,11.51Z"/><path class="cls-9" d="M862.42,1164.54l-32.54-19,31.24-18,32.54,19Zm-30.54-19,30.54,17.86,29.23-16.88-30.53-17.86Z"/><path class="cls-9" d="M710.22,1148.77l-33.53-19.61,33.59-19.39,33.53,19.61Zm-31.52-19.6,31.52,18.44,31.58-18.24-31.52-18.44Z"/><path class="cls-9" d="M720,1116.59l-33.75-19.74,31.45-18.16,33.74,19.74Zm-31.74-19.73L720,1115.42l29.44-17-31.74-18.56Z"/><path class="cls-9" d="M800.08,1128.08l-36.87-21.57,31.24-18L831.32,1110Zm-17.82-11.6,17.83,10.43L829.32,1110l-34.87-20.4-29.24,16.88Z"/><path class="cls-9" d="M764.21,1107.09l-35.09-20.52,31.24-18,35.09,20.52Zm-13.56-9.1,13.56,7.94,29.24-16.88-33.09-19.36-29.24,16.88Z"/><path class="cls-9" d="M743.21,1168.07l-34-19.89,33.59-19.39,34,19.89Zm-32-19.88,32,18.72,31.58-18.24-32-18.71Z"/><path class="cls-9" d="M1077.39,1325.67l-35.45-20.74,31.45-18.15,35.45,20.73Zm-33.45-20.73,33.46,19.56,29.44-17-33.45-19.57Z"/><path class="cls-9" d="M1036.47,1339.6l-37-21.62,33.58-19.39,37,21.62Zm-35-21.61,35,20.45,31.58-18.24-35-20.45Z"/><path class="cls-9" d="M952.94,1329.71l-33-19.29,34.53-19.93,33,19.29Zm-31-19.28,31,18.12,32.52-18.78-14.65-8.57h0l-16.33-9.55Z"/><path class="cls-9" d="M994.83,1242l-35.63-20.84,31.24-18,35.63,20.84Zm-33.63-20.84,33.63,19.67,29.23-16.88-33.62-19.67Z"/><path class="cls-9" d="M1057.29,1278.52l-14.06-8.22h0l-18.33-10.72,31.24-18,32.39,19Zm-30.38-18.93,30.38,17.77,29.24-16.88-30.39-17.77Z"/><path class="cls-9" d="M1123.44,1317.22l-36.13-21.13,31.25-18,36.12,21.13Zm-34.12-21.13,34.13,20,29.23-16.88-34.13-20Z"/><path class="cls-9" d="M1025.9,1260.16l-32.07-18.76,31.24-18,32.07,18.77Zm-30.07-18.75,30.08,17.59,29.23-16.88-30.08-17.59Z"/><path class="cls-9" d="M1088.31,1296.67l-32-18.73,31.24-18,32,18.73Zm-14.67-9.75,14.68,8.59,29.23-16.88-30-17.56L1058.29,1278Z"/><path class="cls-9" d="M872.09,1243.45l-30.33-17.74,33.58-19.39,30.34,17.74Zm-28.33-17.73,28.33,16.57,31.58-18.24L883,1212h0l-7.65-4.48Z"/><path class="cls-9" d="M950.58,1251.49l-35.45-20.74,31.45-18.15L982,1233.34Zm-33.45-20.73,33.46,19.57,29.44-17-33.46-19.57Z"/><path class="cls-9" d="M916.13,1231.34l-33.89-19.82,31.45-18.16,33.88,19.82Zm-31.89-19.82,31.89,18.65,29.44-17-31.88-18.65Z"/><path class="cls-9" d="M774.28,1186.24l-32.07-18.76,33.59-19.39,32.07,18.76Zm-30.06-18.75,30.07,17.59,31.58-18.23-30.07-17.59Z"/><path class="cls-9" d="M883.24,1212.1l-34.7-20.29L880,1173.65l34.7,20.3Zm-7.64-5.63,7.64,4.47,29.45-17L880,1174.81l-29.45,17Z"/><path class="cls-9" d="M751.56,1135.08,719,1116l31.44-18.15L783,1116.92Zm-8.5-6.14,8.5,5,29.44-17L750.39,1099,721,1116Z"/><path class="cls-9" d="M1013,1288l-34-19.89,31.45-18.16,34,19.9Zm-32-19.89,32,18.73,29.44-17-32-18.73Z"/><path class="cls-9" d="M784.11,1154.12l-33.55-19.63L782,1116.34,815.55,1136Zm-31.55-19.62L784.11,1153l29.44-17L782,1117.5Z"/><path class="cls-9" d="M815.8,1172.66l-32.69-19.13,31.44-18.15,32.7,19.12Zm-30.69-19.12,30.7,18,29.44-17-30.7-18Z"/><path class="cls-9" d="M849.54,1192.39l-34.74-20.32,31.45-18.15L881,1174.23Zm-32.73-20.31,32.73,19.15,29.45-17-32.74-19.15Z"/><path class="cls-9" d="M980,1268.71l-30.44-17.8L981,1232.75l30.44,17.81Zm-28.43-17.79L980,1267.55l29.45-17L981,1233.92Z"/><path class="cls-9" d="M921,1311l-34.4-20.12L921.1,1271l34.4,20.12Zm-32.4-20.12,32.4,19,32.52-18.78-32.4-19Z"/><path class="cls-9" d="M905.69,1263.11l-34.6-20.24,33.59-19.39,34.6,20.24Zm-32.6-20.24,32.61,19.07,31.58-18.23-32.61-19.07Z"/><path class="cls-9" d="M842.75,1226.29l-36.32-21.24,33.59-19.4,9.78,5.72h0l26.55,15.53Zm-34.32-21.24,34.33,20.08,31.58-18.23L840,1186.82Z"/><path class="cls-9" d="M807.43,1205.63l-34.15-20,33.59-19.39,34.15,20Zm-32.14-20,32.14,18.81L839,1186.23l-32.14-18.8Z"/><path class="cls-9" d="M1042.94,1305.52,1012,1287.44l31.45-18.16,30.91,18.08Zm-28.9-18.08,28.9,16.91,29.45-17-28.91-16.9Z"/><path class="cls-9" d="M937.51,1281.72l-32.82-19.2,33.59-19.39,32.82,19.2Zm-30.81-19.19,30.81,18,31.58-18.24-30.81-18Z"/><path class="cls-9" d="M1000.51,1318.57l-30.44-17.81,33.59-19.39,30.43,17.8Zm-28.44-17.8,28.44,16.63,31.58-18.23-28.44-16.63Z"/><path class="cls-9" d="M971.07,1301.35l-34.56-20.22,33.59-19.39,34.56,20.22Zm-32.56-20.21,32.56,19,31.58-18.23-32.56-19Z"/><path class="cls-9" d="M893.26,1182.58,861.42,1164l31.24-18,31.85,18.63ZM863.42,1164l29.85,17.46,29.23-16.88-29.85-17.46Z"/><path class="cls-9" d="M1125.41,1353.76l-.25-.15-48.77-28.53,31.45-18.15,49,28.67Zm-47-28.67,47,27.5,29.44-17-47-27.5Z"/><path class="cls-9" d="M1155.86,1336.18l-33.42-19.55,31.24-18,33.42,19.54Zm-31.41-19.54,31.41,18.38,29.24-16.88-31.42-18.38Z"/><path class="cls-9" d="M1092.83,1372.57l-.25-.15-57.11-33.4,33.58-19.39.26.14,57.11,33.41ZM1037.47,1339l55.36,32.39,31.58-18.24-55.36-32.38Z"/><path class="cls-9" d="M1186.1,1318.72l-33.42-19.55,25.68-14.82.25.15,33.32,19.31Zm-31.42-19.54,31.42,18.38,23.82-13.76-31.56-18.29Z"/><path class="cls-9" d="M1153.68,1299.76l-36.13-21.13,25.52-14.73.25.14,36,20.89Zm-34.12-21.13,34.12,20,23.67-13.67-34.28-19.87Z"/><path class="cls-9" d="M1087.53,1261.07l-32.39-19,25.23-14.56.25.14,32.29,18.72Zm-30.39-18.94,30.39,17.77,23.37-13.49-30.53-17.69Z"/><path class="cls-9" d="M1059.3,1391.93l-.25-.15-72.78-42.57,34.53-19.94,15.92,9.32,57.11,33.4Zm-54.48-33,54.49,31.87,32.52-18.77-71-41.55-32.52,18.78Z"/><path class="cls-9" d="M684.46,1211.64,650.92,1192l34.53-19.93L719,1191.71ZM652.93,1192l31.54,18.46L717,1191.7l-31.55-18.45Z"/><path class="cls-9" d="M887.57,1291.47l-32.57-19,34.53-19.93,32.57,19Zm-30.57-19,30.57,17.88,32.52-18.78L905.44,1263h0l-15.92-9.31Z"/><path class="cls-9" d="M587.59,1155l-32-18.73,34.4-20L622.1,1135Zm-30-18.73,30,17.57,32.5-18.77L590,1117.41Z"/><path class="cls-9" d="M1025.06,1224.53l-35.62-20.84,24.92-14.39.25.14,35.54,20.6Zm-33.62-20.84,33.63,19.67,23.07-13.32-33.78-19.58Z"/><path class="cls-9" d="M651.92,1192.6l-32.6-19.08,34.52-19.93,32.61,19.08Zm-30.6-19.07,30.61,17.91,32.51-18.78-30.61-17.9Z"/><path class="cls-9" d="M931.82,1356.4l-.25-.15L893.49,1334l34.59-20,38.33,22.43ZM895.49,1334l36.33,21.26,32.59-18.81-36.34-21.25Z"/><path class="cls-9" d="M971,1379.31l-.25-.15-39.9-23.35,34.59-20,40.16,23.49Zm-38.15-23.49L971,1378.15l32.6-18.82L965.41,1337Z"/><path class="cls-9" d="M894.49,1334.55l-.25-.14L722.55,1233.93,757.1,1214l172,100.6ZM724.56,1233.94l169.93,99.45,32.58-18.81-170-99.42Z"/><path class="cls-9" d="M723.55,1234.52l-.25-.15-39.84-23.31L718,1191.12l40.1,23.46Zm-38.08-23.45,38.09,22.29,32.53-18.79L718,1192.29Z"/><path class="cls-9" d="M620.32,1174.11l-33.73-19.74,34.51-19.93,33.74,19.74Zm-31.73-19.74,31.73,18.57,32.51-18.77-31.74-18.56Z"/><path class="cls-9" d="M660.23,1158.5,589,1116.82l34.44-20,71.34,41.73ZM591,1116.83l69.25,40.5,32.52-18.78L623.42,1098Z"/><path class="cls-9" d="M694.47,1178.52l-35.24-20.61L693.76,1138,729,1158.59Zm-33.24-20.6,33.24,19.44L727,1158.58l-33.24-19.44Z"/><path class="cls-9" d="M724.36,1196l-30.89-18.07L728,1158l30.89,18.07Zm-28.89-18.07,28.89,16.9,32.52-18.78L728,1159.17Z"/><path class="cls-9" d="M677.69,1129.74l-.25-.14-55-32.19L655.91,1078l55.37,32.38Zm-53.27-32.33,53.28,31.17,31.58-18.23-53.37-31.22Z"/><path class="cls-9" d="M856,1273l-33.35-19.51,34.53-19.93,33.35,19.5Zm-31.34-19.5L856,1271.84l32.52-18.77-31.34-18.34Z"/><path class="cls-9" d="M823.65,1254.09l-34-19.92,34.53-19.93,34,19.91Zm-32-19.91,32,18.75,32.52-18.78-13.68-8h0l-18.37-10.75Z"/><path class="cls-9" d="M687.2,1097.44l-32.29-18.89,31.36-18.21,32.38,18.94Zm-30.29-18.89,30.3,17.72,29.44-17-30.38-17.77Z"/><path class="cls-9" d="M757.09,1215.16l-33.73-19.74,34.53-19.93,33.73,19.73Zm-31.73-19.73L757.1,1214l32.52-18.78-31.74-18.56Z"/><path class="cls-9" d="M790.6,1234.76l-34.51-20.19,34.53-19.93,34.51,20.18Zm-32.5-20.18,32.51,19,32.52-18.77-32.51-19Z"/><path class="cls-9" d="M730.12,1087.15l-44.85-26.23,31.15-18.09,44.94,26.28Zm-42.85-26.23L730.12,1086l29.24-16.88L716.42,1044Z"/><path class="cls-9" d="M923.5,1165.12l-31.85-18.63,24.48-14.13,32,18.55Zm-29.84-18.62L923.51,1164l22.6-13-30-17.38Z"/><path class="cls-9" d="M892.65,1147.08l-32.53-19,24.32-14,32.69,19Zm-30.53-19,30.54,17.86,22.46-13-30.68-17.78Z"/><path class="cls-9" d="M861.12,1128.63l-31.8-18.6,24.19-14,31.94,18.51ZM831.32,1110l29.8,17.43,22.32-12.89-29.94-17.35Z"/><path class="cls-9" d="M956.05,1184.16l-33.55-19.62,24.62-14.21,33.71,19.53Zm-31.54-19.62L956.06,1183l22.75-13.14-31.69-18.37Z"/><polygon class="cls-11" points="767.63 1055.91 760.36 1074.9 760.36 1055.91 767.63 1055.91"/><polygon class="cls-12" points="815.34 1089.05 817.46 1083.49 817.46 1089.05 815.34 1089.05"/><path class="cls-9" d="M794.45,1089.63l-35.09-20.52,23.86-13.78,35.25,20.43Zm-33.09-20.52,33.09,19.36,22-12.71-33.24-19.27Z"/><path class="cls-9" d="M830.32,1110.62l-36.87-21.57,24-13.87,37,21.47Zm-34.87-21.57,34.87,20.4,22.18-12.8-35-20.31Z"/><polygon class="cls-13" points="717.03 1030.29 716.42 1031.9 716.42 1030.29 717.03 1030.29"/><polygon class="cls-14" points="777.67 1069.11 783.22 1054.62 783.22 1069.11 777.67 1069.11"/><path class="cls-9" d="M760.36,1069.69l-44.94-26.28,23.59-13.7,45.21,26.2Zm-42.94-26.28,42.94,25.12,21.85-12.62-43.2-25Z"/><path class="cls-9" d="M990.44,1204.27l-35.39-20.69,24.77-14.3,35.55,20.6Zm-33.38-20.69,33.38,19.53,22.91-13.23-33.53-19.44Z"/><polygon class="cls-15" points="735.73 1004.72 1260.54 1310.9 1260.54 883.71 735.73 582.96 735.73 1004.72"/><polygon class="cls-16" points="752.02 985.59 752.02 616.61 1244.26 897.83 1244.26 1272.78 752.02 985.59"/><polygon class="cls-17" points="788.04 915.59 788.04 595.63 1219.73 829.21 1219.73 1167.44 788.04 915.59"/><path class="cls-18" d="M788,883.24V595.63a8.32,8.32,0,0,1,12.45-7.22L1193,812.66a8.33,8.33,0,0,1,4.19,7.23v292.36a8.32,8.32,0,0,1-12.51,7.19l-392.54-229A8.3,8.3,0,0,1,788,883.24Z"/><polygon class="cls-19" points="829.34 523.71 829.34 290.3 897.34 329.15 897.34 560.56 829.34 523.71"/><polygon class="cls-20" points="896.04 560.7 896.04 409 964.04 446.76 964.04 597.55 896.04 560.7"/><polygon class="cls-21" points="964.71 597.29 964.71 491.71 1032.71 527.56 1032.71 634.15 964.71 597.29"/><polygon class="cls-22" points="561.47 1306.61 735.73 1407.56 861.53 1334.93 687.21 1234.01 561.47 1306.61"/><path class="cls-23" d="M649.87,1358.4l-.25-.14-89.15-51.66,43.3-25,.25.15,88.91,51.79Zm-87.39-51.79,87.39,50.63,41.06-23.7-87.16-50.78Z"/><path class="cls-23" d="M735.73,1408.14l-.25-.14-86.61-50.18L691.93,1333l.25.14,86.37,50.32Zm-84.85-50.32L735.73,1407l40.82-23.57-84.62-49.29Z"/><path class="cls-24" d="M1080,1510.41c25.81-75.09,92-83.91,123.23-74.71,9.3,2.74,35.86,17.12,39.67,23.49,7.61,12.74,2.89,20-4.62,25.81-3.69,2.83-94,54.87-104.75,57.37C1097.35,1550.84,1074.08,1527.72,1080,1510.41Z"/><path class="cls-7" d="M1170.52,1491.93c-21.2,16.09-29,37.84-31.78,48.41,22.16-10.06,96.22-52.78,99.56-55.34a23.34,23.34,0,0,0,7.11-8.07C1229.43,1473.69,1197.94,1471.11,1170.52,1491.93Z"/><path class="cls-7" d="M1198.18,1453.74h0a3.58,3.58,0,0,0,3.9.54c4.44-2.12,16-6.21,33.09-1.94-3.34-2.32-7.39-4.79-11.54-7.11-13.23-1.34-20.71.63-24.72,2.59A3.58,3.58,0,0,0,1198.18,1453.74Z"/><path class="cls-25" d="M1170.49,452.74l-87.84-50.18a5.81,5.81,0,0,1-2.16-7.94h0a5.81,5.81,0,0,1,7.93-2.16l87.84,50.18a5.82,5.82,0,0,1,2.17,7.93h0A5.83,5.83,0,0,1,1170.49,452.74Z"/><path class="cls-25" d="M1182.69,423.7l-97.1-55.47a5.8,5.8,0,0,1-2.16-7.93h0a5.81,5.81,0,0,1,7.93-2.17l97.1,55.47a5.81,5.81,0,0,1,2.16,7.94h0A5.82,5.82,0,0,1,1182.69,423.7Z"/><path class="cls-25" d="M1325.43,575.68,1082.65,437a5.8,5.8,0,0,1-2.16-7.93h0a5.81,5.81,0,0,1,7.93-2.17l242.78,138.7a5.8,5.8,0,0,1,2.16,7.93h0A5.81,5.81,0,0,1,1325.43,575.68Z"/><path class="cls-25" d="M1237.29,699.79,1083.62,612a5.82,5.82,0,0,1-2.11-8h0a5.8,5.8,0,0,1,7.88-2.08l153.67,87.79a5.81,5.81,0,0,1,2.68,6.74h0A5.82,5.82,0,0,1,1237.29,699.79Z"/><path class="cls-25" d="M1233,558.17l-153.66-87.79a5.81,5.81,0,0,1-2.12-8h0a5.81,5.81,0,0,1,7.89-2.08l153.66,87.78a5.82,5.82,0,0,1,2.68,6.75h0A5.82,5.82,0,0,1,1233,558.17Z"/><path class="cls-25" d="M1247.62,671.5l-167.41-95.64a5.8,5.8,0,0,1-2.16-7.93h0a5.81,5.81,0,0,1,7.93-2.17l167.41,95.64a5.82,5.82,0,0,1,2.93,5.05h0A5.82,5.82,0,0,1,1247.62,671.5Z"/><path class="cls-25" d="M1170.49,555.37l-87.84-50.18a5.8,5.8,0,0,1-2.16-7.93h0a5.81,5.81,0,0,1,7.93-2.17l87.84,50.18a5.83,5.83,0,0,1,2.17,7.94h0A5.82,5.82,0,0,1,1170.49,555.37Z"/><path class="cls-25" d="M1182.69,705.06l-97.1-55.47a5.81,5.81,0,0,1-2.16-7.94h0a5.82,5.82,0,0,1,7.93-2.16l97.1,55.47a5.8,5.8,0,0,1,2.16,7.93h0A5.81,5.81,0,0,1,1182.69,705.06Z"/><path class="cls-25" d="M1228.69,623.74l-147.93-84.51a5.81,5.81,0,0,1-2.17-7.93h0a5.8,5.8,0,0,1,7.93-2.16l147.93,84.51a5.79,5.79,0,0,1,2.93,5.05h0A5.8,5.8,0,0,1,1228.69,623.74Z"/><path class="cls-26" d="M1197.22,819.89a8.33,8.33,0,0,0-4.19-7.23L800.49,588.41A8.32,8.32,0,0,0,788,595.63v31.85l409.18,234.28Z"/><path class="cls-27" d="M818.85,620.09c2.52,4.35,2.63,9,.25,10.36s-6.34-1-8.85-5.39-2.62-9-.24-10.36S816.34,615.74,818.85,620.09Z"/><path class="cls-28" d="M838.63,630.16c2.51,4.35,2.62,9,.25,10.36s-6.34-1-8.85-5.39-2.62-9-.25-10.36S836.12,625.81,838.63,630.16Z"/><path class="cls-29" d="M859.15,641.69c2.51,4.35,2.62,9,.25,10.35s-6.34-1-8.85-5.39-2.62-9-.25-10.36S856.64,637.34,859.15,641.69Z"/><path class="cls-30" d="M1177.69,819.7l-33.89-19.36a2.24,2.24,0,0,1-.83-3.06h0a2.24,2.24,0,0,1,3.06-.84l33.89,19.36a2.25,2.25,0,0,1,.83,3.07h0A2.25,2.25,0,0,1,1177.69,819.7Z"/><path class="cls-30" d="M1177.69,829.77l-33.89-19.36a2.25,2.25,0,0,1-.83-3.07h0a2.25,2.25,0,0,1,3.06-.83l33.89,19.36a2.24,2.24,0,0,1,.83,3.06h0A2.24,2.24,0,0,1,1177.69,829.77Z"/><path class="cls-30" d="M1177.69,839.83l-33.89-19.36a2.24,2.24,0,0,1-.83-3.06h0a2.23,2.23,0,0,1,3.06-.83l33.89,19.36a2.24,2.24,0,0,1,.83,3.06h0A2.24,2.24,0,0,1,1177.69,839.83Z"/><path class="cls-31" d="M1870.87,1461.6l-23.57-20.34-3.88,6.37-492-277.71a1.69,1.69,0,0,1-.86-1.47V860h5.32l-4.82-26.17-.5-2.71v-1.87A1.71,1.71,0,0,0,1350,828l-3.74-20.32-4.82,26.17L1336.6,860h7.92s-.79,312.58,0,313l494.88,281.12-2.77,4.56,28.89,11.6,28.9,11.6Z"/><path class="cls-32" d="M1796.24,1261.85c-23-13.28-57.82,45-72.31,45-35.64,0-13.53-146-43.83-151.74-26.3-5-64.61,134.74-102.7,117.31l260,147.39C1833.86,1387.23,1832.69,1282.92,1796.24,1261.85Z"/><path class="cls-32" d="M1574.37,1270.71c-37.12-25.32-.18-276.68-31.51-279.46-27.78-2.46-61.4,227.88-97.79,206.17-28.18-16.81-14.29-82.32-42.94-91.29-18.29-5.73-26.63,5-51.7,37.65V1170l487,276v-26.17Z"/><path class="cls-33" d="M1819.67,1334.15a29.78,29.78,0,0,0-2.4-5.25,29,29,0,0,0-1.9-2.9,25.48,25.48,0,0,0-4.38-4.65l-17.54-277.54a6.39,6.39,0,0,0,5-.37c3.48-2,4.1-7.77,2-14.07a29.6,29.6,0,0,0-2.41-5.26,29,29,0,0,0-1.89-2.9c-4.51-6.1-10.47-9.25-14.35-7.31l-.27.15c-4.43,2.56-4.22,11.21.46,19.33.39.67.8,1.31,1.22,1.93l-115,194.37-63.34-185.92a5.69,5.69,0,0,0,.71-.32c3.48-2,4.1-7.77,2-14.07a29.54,29.54,0,0,0-2.4-5.26,30.89,30.89,0,0,0-1.9-2.9c-4.51-6.1-10.47-9.25-14.35-7.31l-.26.15c-2.36,1.36-3.39,4.45-3.15,8.26l-64.56-21-96.13,80.39c-4.45-5.75-10.17-8.67-13.93-6.78l-.27.15a5.31,5.31,0,0,0-1.72,1.62l-51-48.06a19.86,19.86,0,0,0-1.15-8.46,31.41,31.41,0,0,0-4.3-8.15c-4.51-6.1-10.47-9.26-14.35-7.31l-.27.14c-4.43,2.56-4.22,11.22.46,19.33a28.68,28.68,0,0,0,5.1,6.53,22.42,22.42,0,0,0,2.13,1.77c3.36,2.41,6.79,3.2,9.28,1.77a5.21,5.21,0,0,0,1-.73l51.67,48.7a25.12,25.12,0,0,0,3.64,12.17,28.68,28.68,0,0,0,5.1,6.53,21.24,21.24,0,0,0,2.13,1.77c3.36,2.41,6.79,3.21,9.28,1.77,3.48-2,4.1-7.77,1.94-14.07a29,29,0,0,0-2-4.44l94.46-79,64.64,21a29.79,29.79,0,0,0,2.43,5.4,28.37,28.37,0,0,0,5.11,6.52,21.24,21.24,0,0,0,2.13,1.77,15.43,15.43,0,0,0,3.13,1.75l67.54,198.23,119.66-202.23.48.48c.38.37.77.71,1.17,1l17.54,277.52a6.48,6.48,0,0,0-4.74.24l-.27.14c-4.43,2.56-4.23,11.22.46,19.33a28.68,28.68,0,0,0,5.1,6.53,19.84,19.84,0,0,0,2.13,1.76c3.36,2.42,6.79,3.21,9.28,1.78C1821.2,1346.22,1821.83,1340.46,1819.67,1334.15Z"/><path class="cls-34" d="M1531.83,1004.75a29.93,29.93,0,0,0-2.41-5.26,31.45,31.45,0,0,0-1.89-2.9c-4.51-6.1-10.47-9.25-14.35-7.3l-.27.14c-4.43,2.56-4.22,11.21.46,19.33a28.43,28.43,0,0,0,5.11,6.53,19.84,19.84,0,0,0,2.13,1.76c3.35,2.42,6.78,3.21,9.27,1.77C1533.36,1016.82,1534,1011.06,1531.83,1004.75Z"/><path class="cls-34" d="M1678,1236.29a29.54,29.54,0,0,0-2.4-5.26,29,29,0,0,0-1.9-2.9c-4.5-6.1-10.46-9.25-14.34-7.31l-.27.15c-4.43,2.56-4.23,11.21.46,19.33a28.62,28.62,0,0,0,5.1,6.52,22.42,22.42,0,0,0,2.13,1.77c3.36,2.41,6.79,3.21,9.28,1.77C1679.5,1248.35,1680.12,1242.59,1678,1236.29Z"/><path class="cls-35" d="M1156.51,1010.64h0a17.5,17.5,0,0,0-1.42-3.09,17.73,17.73,0,0,0-1.11-1.7,15.33,15.33,0,0,0-1.91-2.15l-8.86-140.31a4.54,4.54,0,0,0,1.38-.53c2.69-1.55,3.46-5.4,2-9.8a17.92,17.92,0,0,0-1.42-3.1,17.73,17.73,0,0,0-1.11-1.7c-3-4.13-7.1-5.9-10.07-4.41l-.25.13c-1.79,1-2.78,3.15-2.72,5.81a15.4,15.4,0,0,0,2.16,7.06l-56.46,95.41L1045.93,862c1.78-1.88,2.13-5.21.86-8.94a17.87,17.87,0,0,0-1.41-3.1,20,20,0,0,0-1.12-1.7c-3-4.13-7.1-5.9-10.07-4.41l-.25.13a5.3,5.3,0,0,0-2.41,3.28l-32-10.41-49,41c-2.75-2.67-5.93-3.67-8.35-2.47l-24.29-22.9a13,13,0,0,0-.76-4.18,17.15,17.15,0,0,0-1.41-3.1,18.91,18.91,0,0,0-1.11-1.69c-3.05-4.14-7.1-5.91-10.07-4.42l-.26.14c-3.41,2-3.64,7.51-.54,12.89a17,17,0,0,0,3,3.86,13,13,0,0,0,1.31,1.09c2.15,1.55,4.36,2,6.21,1.43l25,23.52a15.58,15.58,0,0,0,2.13,6.4,16.73,16.73,0,0,0,3,3.86,12.1,12.1,0,0,0,1.32,1.09c2.51,1.81,5.1,2.19,7.09,1,2.69-1.55,3.46-5.4,2-9.8-.12-.34-.25-.69-.4-1l46.68-39,31.32,10.19a18.65,18.65,0,0,0,1.06,2.15,16.94,16.94,0,0,0,3,3.86,13.14,13.14,0,0,0,1.32,1.09,11.35,11.35,0,0,0,1.14.71l36.11,106,61.44-103.82L1145,1001a4.61,4.61,0,0,0-1.13.4l-.25.13c-3.42,2-3.65,7.52-.55,12.9a17.2,17.2,0,0,0,3,3.86,13.14,13.14,0,0,0,1.32,1.09,8,8,0,0,0,4.59,1.68,4.94,4.94,0,0,0,2.5-.65C1157.24,1018.89,1158,1015.05,1156.51,1010.64Z"/><polygon class="cls-33" points="844.4 885.98 810.3 752.35 817.5 750.51 849.25 874.95 906.67 844.26 910.17 850.82 844.4 885.98"/><path class="cls-36" d="M1006.27,837.24a18.44,18.44,0,0,0-1.12-1.7c-3-4.14-7.1-5.91-10.07-4.42a2,2,0,0,0-.25.14c-3.42,2-3.65,7.51-.54,12.89a16.94,16.94,0,0,0,3,3.86,11.9,11.9,0,0,0,1.32,1.09,8,8,0,0,0,4.59,1.69,5,5,0,0,0,2.51-.66c2.69-1.55,3.45-5.4,1.95-9.8A18.19,18.19,0,0,0,1006.27,837.24Z"/><path class="cls-33" d="M851.74,877a16.49,16.49,0,0,0-1.11-1.7c-3-4.13-7.1-5.91-10.07-4.42l-.25.14c-3.42,2-3.65,7.51-.54,12.89a17.22,17.22,0,0,0,3,3.87,13,13,0,0,0,1.32,1.08,8,8,0,0,0,4.59,1.69,5,5,0,0,0,2.5-.66c2.7-1.55,3.46-5.4,2-9.8A17.5,17.5,0,0,0,851.74,877Z"/><path class="cls-33" d="M819.9,748c-.34-.58-.71-1.15-1.11-1.7-3.06-4.13-7.1-5.9-10.08-4.41l-.25.13c-3.41,2-3.65,7.52-.54,12.9a17.16,17.16,0,0,0,3,3.86,13.14,13.14,0,0,0,1.32,1.09,8,8,0,0,0,4.59,1.69,5,5,0,0,0,2.51-.66c2.69-1.56,3.46-5.4,1.95-9.8A17.54,17.54,0,0,0,819.9,748Z"/><path class="cls-37" d="M1083.24,960h0a17.5,17.5,0,0,0-1.42-3.09,17.73,17.73,0,0,0-1.11-1.7c-3-4.13-7.1-5.91-10.07-4.42l-.25.14c-3.42,2-3.65,7.51-.54,12.9a17.16,17.16,0,0,0,3,3.86,13.14,13.14,0,0,0,1.32,1.09,8,8,0,0,0,4.59,1.68,4.94,4.94,0,0,0,2.5-.65C1084,968.29,1084.74,964.45,1083.24,960Z"/><path class="cls-38" d="M1456.11,1760.41l126.77-73.19a5.47,5.47,0,0,0,2.73-4.83l.06-10L1486.58,1623l-136.87,71.8v9.06a6.52,6.52,0,0,0,3.25,5.63l88.16,50.94A15,15,0,0,0,1456.11,1760.41Z"/><path class="cls-39" d="M1454.75,1751.16,1583.23,1677a4.88,4.88,0,0,0,0-8.45L1491.83,1616a10.5,10.5,0,0,0-10.5,0l-129.18,74.59a4.86,4.86,0,0,0,0,8.44l90.33,52.16A12.28,12.28,0,0,0,1454.75,1751.16Z"/><polygon class="cls-40" points="1570.45 1672.76 1486.59 1624.53 1462.57 1638.4 1547.09 1686.25 1570.45 1672.76"/><polygon class="cls-41" points="1570.45 1672.76 1486.59 1624.53 1462.57 1638.4 1547.09 1686.25 1570.45 1672.76"/><polygon class="cls-42" points="1486.59 1628.38 1567.11 1674.69 1570.45 1672.76 1486.59 1624.53 1462.57 1638.4 1465.93 1640.3 1486.59 1628.38"/><path class="cls-43" d="M1468.71,1705.35,1445.14,1692l22.37-12.85,23.57,13.34Zm-18.5-13.36,18.49,10.47,17.31-10L1467.52,1682Z"/><polygon class="cls-44" points="1508.75 1680.89 1488.55 1692.5 1512.64 1706.14 1532.8 1694.5 1508.75 1680.89"/><polygon class="cls-45" points="1468.04 1657.45 1448.29 1646.26 1428.13 1657.9 1447.84 1669.06 1468.04 1657.45"/><polygon class="cls-46" points="1386.43 1681.98 1364.92 1694.39 1384.28 1705.57 1406.03 1693.08 1386.43 1681.98"/><polygon class="cls-47" points="1447.68 1692.44 1468.71 1704.35 1488.56 1692.95 1467.53 1681.04 1447.68 1692.44"/><polygon class="cls-48" points="1467.53 1681.04 1488.56 1692.95 1508.76 1681.34 1487.73 1669.43 1467.53 1681.04"/><polygon class="cls-49" points="1425.72 1705.06 1446.75 1716.97 1468.71 1704.35 1447.68 1692.44 1425.72 1705.06"/><polygon class="cls-50" points="1487.73 1669.43 1468.04 1658.28 1447.84 1669.89 1467.53 1681.04 1487.73 1669.43"/><polygon class="cls-51" points="1427.99 1681.29 1406.03 1693.91 1425.72 1705.06 1447.68 1692.44 1427.99 1681.29"/><polygon class="cls-52" points="1467.53 1681.04 1447.84 1669.89 1427.99 1681.29 1447.68 1692.44 1467.53 1681.04"/><polygon class="cls-53" points="1427.99 1680.46 1408.34 1669.33 1386.43 1681.98 1406.03 1693.08 1427.99 1680.46"/><polygon class="cls-54" points="1468.71 1704.35 1492.85 1718.02 1512.65 1706.59 1488.56 1692.95 1468.71 1704.35"/><polygon class="cls-55" points="1446.75 1716.97 1470.94 1730.67 1492.85 1718.02 1468.71 1704.35 1446.75 1716.97"/><polygon class="cls-56" points="1424.61 1729.69 1448.62 1743.56 1470.94 1730.67 1446.75 1716.97 1424.61 1729.69"/><polygon class="cls-57" points="1425.72 1705.06 1403.78 1717.66 1424.61 1729.69 1446.75 1716.97 1425.72 1705.06"/><polygon class="cls-58" points="1447.84 1669.06 1428.13 1657.9 1408.34 1669.33 1427.99 1680.46 1447.84 1669.06"/><polygon class="cls-59" points="1406.03 1693.08 1384.28 1705.57 1403.78 1716.83 1425.72 1704.23 1406.03 1693.08"/><path class="cls-60" d="M1535.32,1694.49l-26.57-15h0l-21-11.91h0L1468,1656.39h0l-19.76-11.19-20.15,11.64h0l-19.8,11.43h0l-21.91,12.65h0l-24,13.86,19.36,11.18h0l19.5,11.26h0l20.82,12h0l26.53,15.32,22.33-12.89h0l21.91-12.65h0l19.8-11.43h0Zm-23.15,9.94-21.09-11.94,8.45-4.85,9.23-5.3,21.51,12.18-17.64,10.18Zm-24.44-34,18.49,10.47-9.56,5.49-8.12,4.66-18.49-10.47,8.84-5.07Zm-50.53,17.07,7.94,4.5-10.26,5.9-9.17,5.27-17.15-9.71,14.45-8.31,5-2.86Zm-6.68-6.66,5.34-3.07,12-6.88,9.15,5.18,8,4.53-17.31,10-8.58-4.86Zm1.15,21.8,16-9.2,18.49,10.47-9.9,5.69-9.53,5.47-7.81-4.41-10.68-6.06Zm18.54-10.65,17.31-10h0l18.49,10.47-17.31,10h0Zm17.83-32.71,17.15,9.71-8,4.57-9.73,5.59-8.29-4.7-8.86-5Zm-19.76-11.19,17.22,9.75L1447.82,1668l-17.17-9.73Zm-20.15,11.64,2.6,1.47,14.57,8.25-8.66,5-8.66,5-17.12-9.7Zm-19.8,11.43,17.12,9.69-12.34,7.09L1406,1692l-17.07-9.67Zm-40.91,23.62,19-11,17.07,9.66-14,8-5.27,3Zm19.37,11.18,6.1-3.5,13.14-7.55,17.15,9.71-10.76,6.18-8.65,5Zm19.5,11.26,5.34-3.07,14.09-8.09,10.58,6,7.91,4.48-19.61,11.26Zm42.32,24.44-21.5-12.41,19.64-11.28,21.66,12.26Zm22.32-12.89-21.65-12.26,10.3-5.92,9.13-5.24,21.61,12.23Zm21.91-12.64-21.6-12.24,17.31-10,21.56,12.21Z"/><path class="cls-61" d="M1515.38,1485c0,18.72-26.87,33.89-60,33.89s-60-15.17-60-33.89c0-3.42.31-15,.31-15,7.46-13.93,32.62-18.89,59.71-18.89,28.06,0,52.32,8.2,60,22.34C1515.91,1474.43,1515.38,1485,1515.38,1485Z"/><path class="cls-62" d="M1515.38,1472.18c0,18.72-26.87,33.89-60,33.89s-59.63-14.5-59.63-33.22,26.48-34.56,59.63-34.56S1515.38,1453.46,1515.38,1472.18Z"/><path class="cls-63" d="M1515.38,1465.77c0,18.71-26.87,33.89-60,33.89s-60-15.18-60-33.89c0-3.42.31-15,.31-15,7.46-13.92,32.62-18.89,59.71-18.89,28.06,0,52.32,8.21,60,22.35C1515.91,1455.2,1515.38,1465.77,1515.38,1465.77Z"/><path class="cls-62" d="M1515.38,1453c0,18.71-26.87,33.88-60,33.88s-59.63-14.49-59.63-33.21,26.48-34.56,59.63-34.56S1515.38,1434.23,1515.38,1453Z"/><path class="cls-64" d="M1515.38,1446.54c0,18.71-26.87,33.88-60,33.88s-60-15.17-60-33.88c0-3.42.31-15,.31-15,7.46-13.92,32.62-18.89,59.71-18.89,28.06,0,52.32,8.2,60,22.34C1515.91,1436,1515.38,1446.54,1515.38,1446.54Z"/><path class="cls-62" d="M1515.38,1433.71c0,18.72-26.87,33.89-60,33.89s-59.63-14.5-59.63-33.21,26.48-34.56,59.63-34.56S1515.38,1415,1515.38,1433.71Z"/><path class="cls-64" d="M1515.38,1446.54c0,18.71-26.87,33.88-60,33.88s-60-15.17-60-33.88c0-3.42.31-15,.31-15,7.46-13.92,32.62-18.89,59.71-18.89,28.06,0,52.32,8.2,60,22.34C1515.91,1436,1515.38,1446.54,1515.38,1446.54Z"/><path class="cls-62" d="M1515.38,1433.71c0,18.72-26.87,33.89-60,33.89s-59.63-14.5-59.63-33.21,26.48-34.56,59.63-34.56S1515.38,1415,1515.38,1433.71Z"/><path class="cls-65" d="M1515.38,1427.3c0,18.72-26.87,33.89-60,33.89s-60-15.17-60-33.89c0-3.42.31-15,.31-15,7.46-13.92,32.62-18.89,59.71-18.89,28.06,0,52.32,8.21,60,22.35C1515.91,1416.73,1515.38,1427.3,1515.38,1427.3Z"/><path class="cls-62" d="M1515.38,1414.48c0,18.71-26.87,33.89-60,33.89s-59.63-14.5-59.63-33.22,26.48-34.56,59.63-34.56S1515.38,1395.76,1515.38,1414.48Z"/><path class="cls-66" d="M1515.38,1408.07c0,18.71-26.87,33.89-60,33.89s-60-15.18-60-33.89c0-3.42.31-15,.31-15,7.46-13.92,32.62-18.89,59.71-18.89,28.06,0,52.32,8.2,60,22.35C1515.91,1397.5,1515.38,1408.07,1515.38,1408.07Z"/><path class="cls-62" d="M1515.38,1395.25c0,18.71-26.87,33.88-60,33.88s-59.63-14.5-59.63-33.21,26.48-34.56,59.63-34.56S1515.38,1376.53,1515.38,1395.25Z"/><path class="cls-67" d="M1515.38,1390.12c0,18.71-26.87,33.88-60,33.88s-60-15.17-60-33.88c0-3.42.31-15,.31-15,7.46-13.92,32.62-18.89,59.71-18.89,28.06,0,52.32,8.2,60,22.35C1515.91,1379.55,1515.38,1390.12,1515.38,1390.12Z"/><path class="cls-62" d="M1515.38,1377.29c0,18.72-26.87,33.89-60,33.89s-59.63-14.5-59.63-33.21,26.48-34.56,59.63-34.56S1515.38,1358.58,1515.38,1377.29Z"/><path class="cls-68" d="M1515.38,1372.16c0,18.72-26.87,33.89-60,33.89s-60-15.17-60-33.89c0-3.41.31-15,.31-15,7.46-13.92,32.62-18.89,59.71-18.89,28.06,0,52.32,8.2,60,22.34C1515.91,1361.59,1515.38,1372.16,1515.38,1372.16Z"/><path class="cls-62" d="M1515.38,1359.34c0,18.72-26.87,33.89-60,33.89s-59.63-14.5-59.63-33.21,26.48-34.57,59.63-34.57S1515.38,1340.63,1515.38,1359.34Z"/><path class="cls-69" d="M1515.38,1354.21c0,18.72-26.87,33.89-60,33.89s-60-15.17-60-33.89c0-3.42.31-15,.31-15,7.46-13.93,32.62-18.89,59.71-18.89,28.06,0,52.32,8.2,60,22.34C1515.91,1343.64,1515.38,1354.21,1515.38,1354.21Z"/><path class="cls-62" d="M1515.38,1341.39c0,18.72-26.87,33.89-60,33.89s-59.63-14.5-59.63-33.22,26.48-34.56,59.63-34.56S1515.38,1322.67,1515.38,1341.39Z"/><path class="cls-70" d="M1515.5,1336.26c0,18.72-26.86,33.89-60,33.89s-60-15.17-60-33.89c0-3.42.31-15,.31-15,7.46-13.92,32.61-18.89,59.7-18.89,28.07,0,52.32,8.21,60,22.35C1516,1325.69,1515.5,1336.26,1515.5,1336.26Z"/><path class="cls-62" d="M1515.5,1323.44c0,18.71-26.86,33.89-60,33.89s-59.62-14.5-59.62-33.22,26.48-34.56,59.62-34.56S1515.5,1304.72,1515.5,1323.44Z"/><path class="cls-71" d="M1457.17,1350.92c-31.94,0-53.39-14.21-53.39-27.48s21.45-27.48,53.39-27.48,53.4,14.21,53.4,27.48S1489.11,1350.92,1457.17,1350.92Z"/><path class="cls-72" d="M1457.37,1350.92c-31.43.07-52.57-13.2-52.6-25.64s21-25.82,52.48-25.89,52.57,13.19,52.6,25.63S1488.8,1350.84,1457.37,1350.92Z"/><path class="cls-73" d="M1515.29,1318.87c0,18.71-26.78,33.89-59.81,33.89s-59.8-15.18-59.8-33.89c0-3.42.31-15,.31-15,7.43-13.92,32.5-18.89,59.49-18.89,28,0,52.15,8.2,59.81,22.35C1515.82,1308.3,1515.29,1318.87,1515.29,1318.87Z"/><ellipse class="cls-74" cx="1455.48" cy="1306.05" rx="59.81" ry="33.89"/><path class="cls-71" d="M1455.48,1333.52c-31.94,0-53.39-14.21-53.39-27.47s21.45-27.48,53.39-27.48,53.4,14.21,53.4,27.48S1487.42,1333.52,1455.48,1333.52Z"/><path class="cls-75" d="M1455.69,1333.52c-31.43.08-52.58-13.19-52.61-25.63s21.05-25.82,52.48-25.9,52.57,13.2,52.6,25.64S1487.11,1333.44,1455.69,1333.52Z"/><path class="cls-76" d="M1575.57,1519.43c0,18.72-26.87,33.89-60,33.89s-60-15.17-60-33.89c0-3.41.3-15,.3-15,7.47-13.92,32.62-18.89,59.71-18.89,28.07,0,52.32,8.2,60,22.34C1576.1,1508.86,1575.57,1519.43,1575.57,1519.43Z"/><path class="cls-62" d="M1575.57,1506.61c0,18.72-26.87,33.89-60,33.89s-59.62-14.5-59.62-33.21,26.48-34.57,59.62-34.57S1575.57,1487.9,1575.57,1506.61Z"/><path class="cls-77" d="M1575.57,1501.48c0,18.72-26.87,33.89-60,33.89s-60-15.17-60-33.89c0-3.42.3-15,.3-15,7.47-13.93,32.62-18.89,59.71-18.89,28.07,0,52.32,8.2,60,22.34C1576.1,1490.91,1575.57,1501.48,1575.57,1501.48Z"/><path class="cls-62" d="M1575.57,1488.66c0,18.72-26.87,33.89-60,33.89s-59.62-14.5-59.62-33.22,26.48-34.56,59.62-34.56S1575.57,1469.94,1575.57,1488.66Z"/><path class="cls-78" d="M1575.57,1483.53c0,18.72-26.87,33.89-60,33.89s-60-15.17-60-33.89c0-3.42.3-15,.3-15,7.47-13.92,32.62-18.89,59.71-18.89,28.07,0,52.32,8.21,60,22.35C1576.1,1473,1575.57,1483.53,1575.57,1483.53Z"/><path class="cls-62" d="M1575.57,1470.71c0,18.71-26.87,33.89-60,33.89s-59.62-14.5-59.62-33.22,26.48-34.56,59.62-34.56S1575.57,1452,1575.57,1470.71Z"/><path class="cls-79" d="M1575.57,1465.58c0,18.72-26.87,33.89-60,33.89s-60-15.17-60-33.89c0-3.42.3-15,.3-15,7.47-13.92,32.62-18.89,59.71-18.89,28.07,0,52.32,8.21,60,22.35C1576.1,1455,1575.57,1465.58,1575.57,1465.58Z"/><path class="cls-62" d="M1575.57,1452.76c0,18.71-26.87,33.89-60,33.89s-59.62-14.5-59.62-33.22,26.48-34.56,59.62-34.56S1575.57,1434,1575.57,1452.76Z"/><path class="cls-80" d="M1575.7,1447.63c0,18.71-26.87,33.89-60,33.89s-60-15.18-60-33.89c0-3.42.31-15,.31-15,7.46-13.92,32.61-18.89,59.7-18.89,28.07,0,52.33,8.2,60,22.35C1576.22,1437.06,1575.7,1447.63,1575.7,1447.63Z"/><path class="cls-62" d="M1575.7,1434.81c0,18.71-26.87,33.88-60,33.88s-59.62-14.5-59.62-33.21,26.48-34.56,59.62-34.56S1575.7,1416.09,1575.7,1434.81Z"/><path class="cls-71" d="M1517.36,1462.28c-31.94,0-53.39-14.2-53.39-27.47s21.45-27.48,53.39-27.48,53.4,14.21,53.4,27.48S1549.3,1462.28,1517.36,1462.28Z"/><path class="cls-81" d="M1517.56,1462.28c-31.42.08-52.57-13.19-52.6-25.63s21-25.82,52.48-25.9,52.57,13.2,52.6,25.64S1549,1462.2,1517.56,1462.28Z"/><path class="cls-82" d="M1575.48,1430.23c0,18.72-26.77,33.89-59.8,33.89s-59.81-15.17-59.81-33.89c0-3.41.31-15,.31-15,7.43-13.92,32.5-18.89,59.5-18.89,28,0,52.14,8.2,59.8,22.34C1576,1419.66,1575.48,1430.23,1575.48,1430.23Z"/><ellipse class="cls-74" cx="1515.68" cy="1417.41" rx="59.81" ry="33.89"/><path class="cls-71" d="M1515.68,1444.89c-31.94,0-53.4-14.21-53.4-27.48s21.46-27.47,53.4-27.47,53.39,14.2,53.39,27.47S1547.62,1444.89,1515.68,1444.89Z"/><path class="cls-83" d="M1515.88,1444.89c-31.43.08-52.58-13.19-52.61-25.64s21-25.81,52.48-25.89,52.58,13.19,52.61,25.63S1547.31,1444.81,1515.88,1444.89Z"/><path class="cls-84" d="M1411.89,1561.75c0,18.71-26.87,33.89-60,33.89s-60-15.18-60-33.89c0-3.42.31-15,.31-15,7.47-13.92,32.62-18.89,59.71-18.89,28.07,0,52.32,8.21,60,22.35C1412.42,1551.18,1411.89,1561.75,1411.89,1561.75Z"/><path class="cls-62" d="M1411.89,1548.93c0,18.71-26.87,33.88-60,33.88s-59.62-14.49-59.62-33.21,26.47-34.56,59.62-34.56S1411.89,1530.21,1411.89,1548.93Z"/><path class="cls-85" d="M1411.89,1542.52c0,18.71-26.87,33.88-60,33.88s-60-15.17-60-33.88c0-3.42.31-15,.31-15,7.47-13.92,32.62-18.89,59.71-18.89,28.07,0,52.32,8.2,60,22.35C1412.42,1532,1411.89,1542.52,1411.89,1542.52Z"/><path class="cls-62" d="M1411.89,1529.69c0,18.72-26.87,33.89-60,33.89s-59.62-14.5-59.62-33.21,26.47-34.56,59.62-34.56S1411.89,1511,1411.89,1529.69Z"/><path class="cls-86" d="M1411.89,1524.56c0,18.72-26.87,33.89-60,33.89s-60-15.17-60-33.89c0-3.42.31-15,.31-15,7.47-13.92,32.62-18.89,59.71-18.89,28.07,0,52.32,8.2,60,22.34C1412.42,1514,1411.89,1524.56,1411.89,1524.56Z"/><path class="cls-62" d="M1411.89,1511.74c0,18.72-26.87,33.89-60,33.89s-59.62-14.5-59.62-33.22,26.47-34.56,59.62-34.56S1411.89,1493,1411.89,1511.74Z"/><path class="cls-87" d="M1411.89,1506.61c0,18.72-26.87,33.89-60,33.89s-60-15.17-60-33.89c0-3.42.31-15,.31-15,7.47-13.92,32.62-18.89,59.71-18.89,28.07,0,52.32,8.21,60,22.35C1412.42,1496,1411.89,1506.61,1411.89,1506.61Z"/><path class="cls-62" d="M1411.89,1493.79c0,18.72-26.87,33.89-60,33.89s-59.62-14.5-59.62-33.22,26.47-34.56,59.62-34.56S1411.89,1475.07,1411.89,1493.79Z"/><path class="cls-88" d="M1411.89,1488.66c0,18.72-26.87,33.89-60,33.89s-60-15.17-60-33.89c0-3.42.31-15,.31-15,7.47-13.92,32.62-18.89,59.71-18.89,28.07,0,52.32,8.21,60,22.35C1412.42,1478.09,1411.89,1488.66,1411.89,1488.66Z"/><path class="cls-62" d="M1411.89,1475.84c0,18.71-26.87,33.89-60,33.89s-59.62-14.5-59.62-33.22,26.47-34.56,59.62-34.56S1411.89,1457.12,1411.89,1475.84Z"/><path class="cls-89" d="M1412,1470.71c0,18.71-26.87,33.89-60,33.89s-60-15.18-60-33.89c0-3.42.31-15,.31-15,7.46-13.92,32.61-18.89,59.7-18.89,28.07,0,52.32,8.21,60,22.35C1412.54,1460.14,1412,1470.71,1412,1470.71Z"/><path class="cls-62" d="M1412,1457.89c0,18.71-26.87,33.88-60,33.88s-59.62-14.49-59.62-33.21S1318.86,1424,1352,1424,1412,1439.17,1412,1457.89Z"/><path class="cls-71" d="M1353.68,1485.36c-31.94,0-53.39-14.2-53.39-27.47s21.45-27.48,53.39-27.48,53.4,14.21,53.4,27.48S1385.62,1485.36,1353.68,1485.36Z"/><path class="cls-90" d="M1353.88,1485.36c-31.43.08-52.57-13.19-52.6-25.63s21-25.82,52.48-25.9,52.57,13.2,52.6,25.64S1385.31,1485.29,1353.88,1485.36Z"/><path class="cls-91" d="M1411.8,1453.32c0,18.71-26.77,33.88-59.8,33.88s-59.81-15.17-59.81-33.88c0-3.42.31-15,.31-15,7.43-13.92,32.5-18.89,59.5-18.89,28,0,52.14,8.2,59.8,22.35C1412.33,1442.75,1411.8,1453.32,1411.8,1453.32Z"/><ellipse class="cls-74" cx="1352" cy="1440.49" rx="59.81" ry="33.89"/><path class="cls-71" d="M1352,1468c-31.94,0-53.4-14.21-53.4-27.48S1320.06,1413,1352,1413s53.39,14.2,53.39,27.47S1383.94,1468,1352,1468Z"/><path class="cls-92" d="M1352.2,1468c-31.43.08-52.58-13.19-52.61-25.64s21.05-25.81,52.48-25.89,52.57,13.19,52.61,25.63S1383.63,1467.89,1352.2,1468Z"/><path class="cls-93" d="M1084.5,1142.19V973.54a4.88,4.88,0,0,1,7.3-4.24L1322,1100.81a4.88,4.88,0,0,1,2.46,4.24v171.44a4.88,4.88,0,0,1-7.34,4.21l-230.19-134.29A4.89,4.89,0,0,1,1084.5,1142.19Z"/><path class="cls-94" d="M1324.45,1105.05a4.88,4.88,0,0,0-2.46-4.24L1091.8,969.3a4.88,4.88,0,0,0-7.3,4.24v18.67l240,137.39Z"/><path class="cls-95" d="M1102.57,987.88c1.47,2.55,1.54,5.27.14,6.08s-3.71-.61-5.19-3.16-1.53-5.27-.14-6.08S1101.1,985.33,1102.57,987.88Z"/><path class="cls-96" d="M1114.17,993.79c1.47,2.55,1.53,5.27.14,6.07s-3.72-.61-5.19-3.16-1.54-5.27-.14-6.08S1112.69,991.24,1114.17,993.79Z"/><path class="cls-97" d="M1126.2,1000.55c1.47,2.55,1.54,5.27.14,6.07s-3.71-.61-5.19-3.16-1.53-5.27-.14-6.08S1124.73,998,1126.2,1000.55Z"/><path class="cls-30" d="M1313,1104.94l-19.87-11.36a1.31,1.31,0,0,1-.49-1.79h0a1.32,1.32,0,0,1,1.8-.49l19.87,11.35a1.32,1.32,0,0,1,.49,1.8h0A1.32,1.32,0,0,1,1313,1104.94Z"/><path class="cls-30" d="M1313,1110.84l-19.87-11.36a1.31,1.31,0,0,1-.49-1.79h0a1.32,1.32,0,0,1,1.8-.49l19.87,11.35a1.32,1.32,0,0,1,.49,1.8h0A1.32,1.32,0,0,1,1313,1110.84Z"/><path class="cls-30" d="M1313,1116.74l-19.87-11.35a1.32,1.32,0,0,1-.49-1.8h0a1.32,1.32,0,0,1,1.8-.49l19.87,11.36a1.31,1.31,0,0,1,.49,1.79h0A1.32,1.32,0,0,1,1313,1116.74Z"/><path class="cls-98" d="M1113.76,1091.26v-11.6a14.8,14.8,0,0,1,22.14-12.85l129.69,74.09a48.79,48.79,0,0,1,24.58,42.36v8a14.8,14.8,0,0,1-22.26,12.78l-134.44-78.43A39.73,39.73,0,0,1,1113.76,1091.26Z"/><path class="cls-99" d="M1155.45,1104.11c3.24,5.61,3.38,11.59.32,13.35s-8.17-1.34-11.4-7-3.38-11.58-.32-13.35S1152.22,1098.51,1155.45,1104.11Z"/><path class="cls-100" d="M1181,1117.09c3.23,5.6,3.37,11.58.31,13.35s-8.16-1.35-11.4-7-3.38-11.59-.32-13.36S1177.71,1111.48,1181,1117.09Z"/><path class="cls-101" d="M1207.39,1131.94c3.24,5.61,3.38,11.58.32,13.35s-8.17-1.34-11.41-7-3.38-11.58-.31-13.35S1204.15,1126.33,1207.39,1131.94Z"/><path class="cls-102" d="M1233.11,1146.27c3.24,5.61,3.38,11.58.32,13.35s-8.17-1.34-11.4-6.95-3.38-11.58-.32-13.35S1229.88,1140.66,1233.11,1146.27Z"/><path class="cls-103" d="M1259.56,1161.13c3.24,5.6,3.38,11.58.32,13.35s-8.17-1.35-11.41-7-3.38-11.59-.31-13.35S1256.32,1155.52,1259.56,1161.13Z"/><polygon class="cls-74" points="383.78 623.78 426.06 648.73 471.9 622.88 428.66 597.93 383.78 623.78"/><polygon class="cls-104" points="349.17 848.36 651.32 1026.6 730.23 986.46 431.51 800.92 349.17 848.36"/><polygon class="cls-62" points="383.3 852.68 425.58 877.62 426.06 648.73 383.78 623.78 383.3 852.68"/><polygon class="cls-105" points="425.58 877.62 471.42 851.78 471.9 622.88 426.06 648.73 425.58 877.62"/><polygon class="cls-106" points="451.31 715.91 493.59 740.85 539.43 715 496.19 690.05 451.31 715.91"/><polygon class="cls-107" points="451.31 888.82 493.59 913.76 493.59 740.85 451.31 715.91 451.31 888.82"/><polygon class="cls-108" points="493.59 913.76 539.43 887.92 539.43 715 493.59 740.85 493.59 913.76"/><polygon class="cls-109" points="518.56 804.27 560.84 829.21 606.68 803.36 563.44 778.41 518.56 804.27"/><polygon class="cls-110" points="518.56 926.38 560.84 951.32 560.84 829.21 518.56 804.27 518.56 926.38"/><polygon class="cls-111" points="560.84 951.32 606.68 925.48 606.68 803.36 560.84 829.21 560.84 951.32"/><polygon class="cls-3" points="586.99 892.91 629.27 917.85 675.11 892.01 631.87 867.05 586.99 892.91"/><polygon class="cls-112" points="586.37 964.23 628.65 989.17 629.27 917.85 586.99 892.91 586.37 964.23"/><polygon class="cls-113" points="628.65 989.17 674.49 963.32 675.11 892.01 629.27 917.85 628.65 989.17"/><path class="cls-112" d="M545.53,580.38l19.2-8.66-28-46.4-6.32-2.92-26.32,71.66,6.09,6,13.39-9.73C541.35,665,621.25,767.08,648.44,787l-.08-8.48C626,762.13,559.12,650,545.53,580.38Z"/><path class="cls-3" d="M551.33,578.67l13.4-6.95-28-46.4L510.16,600l19.71-10.23c17.8,74.69,91.3,168.8,118.49,188.7l20.31-12.92C644.16,749.43,564.92,648.27,551.33,578.67Z"/><polygon class="cls-114" points="648.44 786.98 668.67 774.14 668.67 765.58 648.36 778.5 648.44 786.98"/><polygon class="cls-115" points="304.36 769.17 215.05 919.33 304.36 973.47 393.67 919.33 304.36 769.17"/><path class="cls-116" d="M378.66,1120.41c0,23.25-33.27,42.1-74.3,42.1s-74.29-18.85-74.29-42.1c0-8.72,14.33-23.37,22.34-30.08,13.35-11.2,26.31-12,52-12,25,0,35.62,1.29,49.09,12C362.1,1097.21,378.66,1111.32,378.66,1120.41Z"/><ellipse class="cls-117" cx="304.36" cy="1100.02" rx="51.97" ry="29.45"/><ellipse class="cls-118" cx="304.36" cy="1096.67" rx="26.52" ry="11.55"/><polygon class="cls-119" points="304.36 988.54 215.05 932.72 304.36 1062.22 393.67 932.72 304.36 988.54"/><polygon class="cls-120" points="304.36 769.17 215.05 919.33 304.36 973.47 393.67 919.33 304.36 769.17"/><polygon class="cls-121" points="304.36 973.47 215.05 919.33 304.36 769.17 304.36 769.17 304.36 973.47"/><polygon class="cls-122" points="304.36 1062.22 304.36 1062.22 215.05 932.72 304.36 988.54 304.36 1062.22"/><polygon class="cls-123" points="393.67 919.33 304.36 879.69 215.05 919.33 304.36 973.47 393.67 919.33"/><polygon class="cls-124" points="1378.77 788.13 1347.87 770.5 1347.87 611.27 1378.77 629.11 1378.77 788.13"/><polygon class="cls-125" points="1570.11 628.84 1570.11 748.8 1474.21 804.17 1474.21 842.6 1600.55 770.5 1600.55 763.38 1600.55 611.27 1570.11 628.84"/><polygon class="cls-126" points="1474.21 842.6 1411.04 806.55 1411.04 767.5 1474.21 803.55 1474.21 842.6"/><polygon class="cls-127" points="1474.21 690.06 1474.21 769.25 1537.38 733.21 1537.38 653.59 1474.21 690.06"/><polygon class="cls-128" points="1411.04 653.59 1411.04 733.21 1474.21 769.25 1474.21 690.06 1411.04 653.59"/><polygon class="cls-129" points="1474.21 537.5 1347.87 611.27 1378.31 628.84 1474.21 573.47 1537.38 609.94 1537.38 574.39 1474.21 537.5 1474.21 537.5"/><polygon class="cls-130" points="1570.11 593.5 1570.11 628.84 1600.55 611.27 1570.11 593.5"/><polygon class="cls-131" points="1537.38 653.59 1474.21 617.79 1411.04 653.59 1474.21 690.06 1537.38 653.59"/><path class="cls-132" d="M708.78,403.38a20.13,20.13,0,0,0-10.55,2.8l-.24-.32c-8-10.8-12.37-24.4-11.33-35.61l.2-2.13a26.15,26.15,0,0,0,8.86,1c18.15-1.31,25.67-23.81,16.33-49.83-8.49-23.66-28.45-42-45.39-41.7-18.63.34-26.78,22.26-18.21,48.11A76.42,76.42,0,0,0,668,356.76l-.52,4.1c-1.27,10-6.91,16.32-15,16.91l-2.35.17c-10.39-19.55-28.09-33.08-43.1-31.3-16.48,1.95-23.75,22.28-16.5,46.14,7.94,26.14,29.69,46.54,47.84,45.23,14.79-1.06,22.48-16.21,19.79-35.86l8.77-.63c4.07-.29,8.84,2.51,12.54,7.37l8.84,11.6c-2.51,8.9-1.92,20.46,2.55,32.86,8.44,23.42,28.14,41.66,45,41.62,19.48,0,27.71-23.47,17.74-50.53C745.32,422.2,724.8,403.37,708.78,403.38Z"/></svg>