<?xml version="1.0" encoding="iso-8859-1"?>
<!-- Generator: Adobe Illustrator 16.0.0, SVG Export Plug-In . SVG Version: 6.00 Build 0)  -->
<!DOCTYPE svg PUBLIC "-//W3C//DTD SVG 1.1//EN" "http://www.w3.org/Graphics/SVG/1.1/DTD/svg11.dtd">
<svg version="1.1" id="Layer_1" xmlns="http://www.w3.org/2000/svg" xmlns:xlink="http://www.w3.org/1999/xlink" x="0px" y="0px"
	 width="50px" height="50px" viewBox="0 0 50 50" style="enable-background:new 0 0 50 50;" xml:space="preserve">
<g>
	<g>
		<path id="XMLID_1_" style="fill:#AFAFAF;" d="M49.809,25c0-13.699-11.106-24.809-24.807-24.809
			C11.298,0.191,0.191,11.301,0.191,25c0,13.701,11.107,24.81,24.811,24.81C38.702,49.81,49.809,38.701,49.809,25z"/>
	</g>
	<g>
		<path id="XMLID_49_" style="fill:#00A9FF;" d="M49.809,25c0-13.699-11.106-24.809-24.807-24.809
			C11.298,0.191,0.191,11.301,0.191,25c0,13.701,11.107,24.81,24.811,24.81C38.702,49.81,49.809,38.701,49.809,25z"/>
		<path id="XMLID_47_" style="fill:#FFFFFF;" d="M39.396,17.556c-0.993,0.403-2.058,0.678-3.166,0.809
			c1.175-0.691,2.091-1.765,2.569-3.049c0.03-0.081-0.059-0.154-0.134-0.112c-1.108,0.618-2.323,1.07-3.614,1.319
			c-1.097-1.153-2.665-1.874-4.401-1.874c-3.326,0-6.028,2.658-6.028,5.934c0,0.466,0.054,0.918,0.155,1.353
			c-4.994-0.248-9.423-2.596-12.396-6.165c-0.015-0.018-0.043-0.016-0.055,0.004c-0.5,0.868-0.792,1.873-0.792,2.943
			c0,2.011,1.02,3.792,2.578,4.866c0.03,0.021,0.014,0.069-0.023,0.068c-0.92-0.048-1.788-0.302-2.553-0.71
			c-0.022-0.012-0.048,0.002-0.046,0.027c0.015,0.261,0.1,1.424,0.407,2.171c0.76,1.852,2.397,3.268,4.43,3.67
			c-0.508,0.132-1.044,0.21-1.592,0.21c-0.366,0-0.727-0.036-1.082-0.101c-0.025-0.005-0.046,0.02-0.038,0.044
			c0.778,2.298,2.94,3.978,5.513,4.064c0.034,0.001,0.049,0.044,0.022,0.065c-2.052,1.557-4.615,2.479-7.409,2.479
			c-0.488,0-0.962-0.027-1.436-0.081c2.668,1.683,5.837,2.665,9.241,2.665c4.691,0,8.482-1.618,11.295-4.077
			c2.839-2.482,4.683-5.823,5.45-9.226c0.271-1.196,0.412-2.404,0.412-3.583c0-0.255-0.007-0.513-0.02-0.767
			c1.091-0.776,2.048-1.729,2.823-2.811C39.563,17.619,39.482,17.521,39.396,17.556z"/>
	</g>
</g>
</svg>
