<?xml version="1.0" encoding="iso-8859-1"?>
<!-- Generator: Adobe Illustrator 16.0.0, SVG Export Plug-In . SVG Version: 6.00 Build 0)  -->
<!DOCTYPE svg PUBLIC "-//W3C//DTD SVG 1.1//EN" "http://www.w3.org/Graphics/SVG/1.1/DTD/svg11.dtd">
<svg version="1.1" id="Layer_1" xmlns="http://www.w3.org/2000/svg" xmlns:xlink="http://www.w3.org/1999/xlink" x="0px" y="0px"
	 width="50px" height="50px" viewBox="0 0 50 50" style="enable-background:new 0 0 50 50;" xml:space="preserve">
<g>
	<g>
		<circle id="XMLID_1_" style="fill:#AFAFAF;" cx="25" cy="25" r="23.81"/>
	</g>
	<g>
		<circle id="XMLID_36_" style="fill:#00B456;" cx="25" cy="25" r="23.81"/>
		<g>
			<path style="fill:#FFFFFF;" d="M39.313,23.032c-0.194-7.628-6.368-13.604-14.058-13.604c-7.551,0-13.721,5.86-14.047,13.34
				c-0.01,0.205-0.017,0.41-0.017,0.616c0,2.483,0.663,4.912,1.917,7.039c0.03,0.051,0.037,0.111,0.018,0.167l-2.491,7.36
				c-0.034,0.1,0.061,0.196,0.161,0.164l7.664-2.438c0.052-0.017,0.108-0.012,0.157,0.015c2.035,1.081,4.327,1.652,6.639,1.652
				c7.755,0,14.063-6.263,14.063-13.96C39.318,23.283,39.313,23.032,39.313,23.032z M15.762,29.672
				c-1.261-1.865-1.925-4.029-1.925-6.287c0-0.361,0.018-0.72,0.055-1.099c0.567-5.833,5.452-10.233,11.363-10.233
				c5.926,0,10.925,4.588,11.383,10.445c0.026,0.345,0.038,0.626,0.038,0.885c0,6.249-5.123,11.332-11.421,11.332
				c-1.68,0-3.321-0.364-4.824-1.063c-0.419-0.196-1.215-0.671-1.467-0.823c-0.051-0.03-0.111-0.037-0.168-0.019l-3.857,1.227
				c-0.088,0.028-0.171-0.056-0.142-0.144l1.246-3.674c0.021-0.063,0.012-0.133-0.027-0.187
				C15.941,29.926,15.816,29.752,15.762,29.672z"/>
		</g>
		<path style="fill:#FFFFFF;" d="M31.941,26.49c-0.087-0.14-0.694-0.432-0.694-0.432c-0.239-0.119-2.001-0.981-2.331-1.101
			c-0.283-0.102-0.604-0.217-0.893,0.211c-0.219,0.324-0.858,1.071-1.067,1.306c-0.146,0.166-0.279,0.221-0.604,0.059
			c-0.055-0.026-1.623-0.697-2.706-1.654c-0.959-0.848-1.624-1.896-1.866-2.307c-0.149-0.25-0.052-0.368,0.131-0.551
			c0.113-0.11,0.61-0.711,0.649-0.769c0.079-0.121,0.22-0.41,0.22-0.41c0.144-0.283,0.054-0.529-0.026-0.691
			c-0.057-0.112-0.96-2.287-1.046-2.492c-0.257-0.614-0.532-0.646-0.795-0.631c-0.128,0.009-1.323,0.019-1.704,0.432l-0.067,0.071
			c-0.374,0.396-1.151,1.218-1.151,2.81c0,0.366,0.059,0.751,0.18,1.178c0.222,0.767,0.656,1.606,1.23,2.374
			c0.013,0.017,0.887,1.231,1.324,1.734c1.383,1.592,2.945,2.768,4.521,3.384c2.013,0.787,2.874,0.967,3.361,0.967
			c0.214,0,0.663-0.108,0.761-0.118c0.615-0.055,2.078-0.816,2.385-1.672C32.045,27.379,32.051,26.672,31.941,26.49z"/>
	</g>
</g>
</svg>
