<?xml version="1.0" encoding="iso-8859-1"?>
<!-- Generator: Adobe Illustrator 16.0.0, SVG Export Plug-In . SVG Version: 6.00 Build 0)  -->
<!DOCTYPE svg PUBLIC "-//W3C//DTD SVG 1.1//EN" "http://www.w3.org/Graphics/SVG/1.1/DTD/svg11.dtd">
<svg version="1.1" id="Layer_1" xmlns="http://www.w3.org/2000/svg" xmlns:xlink="http://www.w3.org/1999/xlink" x="0px" y="0px"
	 width="50px" height="50px" viewBox="0 0 50 50" style="enable-background:new 0 0 50 50;" xml:space="preserve">
<g>
	<g>
		<circle id="XMLID_1_" style="fill:#AFAFAF;" cx="25" cy="24.999" r="23.809"/>
	</g>
	<g>
		<circle id="XMLID_41_" style="fill:#D40C18;" cx="25" cy="24.999" r="23.809"/>
		<path style="fill:#FFFFFF;" d="M31.086,33.787h-12.17c-3.256,0-5.896-2.64-5.896-5.896v-5.78c0-3.256,2.64-5.896,5.896-5.896
			h12.17c3.256,0,5.896,2.64,5.896,5.896v5.78C36.981,31.147,34.342,33.787,31.086,33.787z"/>
		<path style="fill:#DB0C0B;" d="M29.87,25.055l-8.002,4.323c-0.267,0.144-0.592-0.05-0.592-0.354l-0.003-8.68
			c0-0.305,0.326-0.498,0.593-0.353l8.005,4.357C30.15,24.501,30.15,24.903,29.87,25.055z"/>
	</g>
</g>
</svg>
